<?xml version="1.0" encoding="UTF-8"?>
<svg id="Layer_2" data-name="Layer 2" xmlns="http://www.w3.org/2000/svg" xmlns:xlink="http://www.w3.org/1999/xlink" viewBox="0 0 937.86 808.5">
  <defs>
    <style>
      .cls-1 {
        fill: none;
      }

      .cls-2 {
        clip-path: url(#clippath-1);
      }

      .cls-3 {
        fill: #222;
      }

      .cls-4 {
        clip-path: url(#clippath);
      }
    </style>
    <clipPath id="clippath">
      <rect class="cls-1" y="273.19" width="937.86" height="535.31"/>
    </clipPath>
    <clipPath id="clippath-1">
      <rect class="cls-1" y="273.19" width="937.86" height="535.31"/>
    </clipPath>
  </defs>
  <g id="Layer_1-2" data-name="Layer 1">
    <g>
      <path class="cls-3" d="M475.46,119.02c-4.01,11.91-15.58,7.12-15.58,7.12-9.12,2.68-10.9-11.13-10.9-11.13-4.34-8.45,9.24-12.12,9.24-12.12,8.22-7.68,15.45.45,15.45.45,11.24,6.9,1.79,15.68,1.79,15.68Z"/>
      <path class="cls-3" d="M576.25,78.11c-4.59-3.97-11.44-4.34-16.96-5.67-7.11-1.72-14.38-2.74-21.7-2.63-3.01.04-5.37.12-7.28.25-7.03.46-12.75-5.49-12.1-12.5.1-1,.22-2.09.4-3.26,1.57-9.93.15-20.13-2.33-29.88-1.75-6.86-4.87-14.47-11.58-16.69-3.57-1.18-7.55-.57-11.1-1.83-3.16-1.12-5.66-3.63-8.76-4.9-4.92-2.03-10.61-.67-15.37,1.72-16.06,8.09-24.27,26.38-27.92,43.99-.28,1.33-.57,2.73-1.04,4.03-.9,2.48-2.47,4.56-5.81,5.05-2.58.37-5.21-.31-7.41-1.71-16.24-10.24-38.74-12.02-54.67-1.14-14.93,10.22-21.31,32.53-11.37,47.65,5.37,8.18,14.26,13.24,22.81,18.01,3.56,1.99,7.51,4.41,5.88,10.15-.7,2.45-2.28,4.55-4.25,6.16-10.09,8.21-15.16,21.95-13.12,34.74,1.92,12.02,11.5,26.2,23.83,29.01,13.47,3.08,27.31-4.27,37.88-12.26,4.87-3.68,15.79-17.05,21.57-15.12,2.6.87,4.56,2.98,6.44,4.99,5.53,5.95,9.91,21.66,18.02,22.31,4.24.35,8.5-.91,12.74-.54,5.64.5,10.88,3.85,16.53,3.56,3.93-.2,7.57-2.15,10.66-4.59,12.29-9.63,17.02-27.77,11-42.17-1.82-4.39-4.59-9.26.94-13.44,1.35-1.02,2.95-1.62,4.61-1.9,20.45-3.44,38.02-19.65,43.4-39.61,2.02-7.52,1.94-16.67-3.94-21.78ZM504.66,124.94s-14.92,7.78-21.78,4.35c-6.86-3.44-3.06,15.25-3.06,15.25l-10.66-7.01c-1.48-.98-3.48-.57-4.45.91l-7.67,16.08s-3.35-11.82-1.37-18.33c2.43-8-23.62,6.82-24.27,7.19.54-.52,15.16-14.93,10.67-18.29-4.58-3.44-25.17-3.06-25.17-3.06,0,0,20.52-6.99,20.52-13.09s-13.18-13.49-13.99-13.96c.96.33,17.81,6.22,21.51,3.63,3.82-2.67,1.21-9.13,1.21-9.13l-6.35-13.96c.47.35,15.34,11.42,17.53,14.09,2.99,3.68,6.48.76,7.24-2.67.77-3.44,7.25-16.78,7.25-16.78,0,0,.38,19.45,3.43,20.98,3.06,1.53,17.54-9.54,17.54-9.54,0,0-1.14,15.26-5.33,18.31-4.2,3.05,2.67,4.95,6.48,4.95s13.72,2.29,13.72,2.29c0,0-19.83,6.48-19.83,8.77s16.83,9,16.83,9Z"/>
      <path class="cls-3" d="M475.46,119.02c-4.01,11.91-15.58,7.12-15.58,7.12-9.12,2.68-10.9-11.13-10.9-11.13-4.34-8.45,9.24-12.12,9.24-12.12,8.22-7.68,15.45.45,15.45.45,11.24,6.9,1.79,15.68,1.79,15.68Z"/>
      <path class="cls-3" d="M475.46,119.02c-4.01,11.91-15.58,7.12-15.58,7.12-9.12,2.68-10.9-11.13-10.9-11.13-4.34-8.45,9.24-12.12,9.24-12.12,8.22-7.68,15.45.45,15.45.45,11.24,6.9,1.79,15.68,1.79,15.68Z"/>
    </g>
    <g id="Artwork_3" data-name="Artwork 3">
      <g class="cls-4">
        <g class="cls-2">
          <path class="cls-3" d="M284.88,692.63l.07-.05.05-.02c5.87-3.38,8.29-4.79,8.2-22.83-.02-4.09-.12-8.2-.26-12.24-3.48-2.8-7.87-4.18-12.28-4.06-2.75.09-5.52.75-8.1,2.06-.85.42-1.67.92-2.47,1.48-1.2.82-2.33,1.86-3.36,3.01-1.71,1.9-3.17,4.27-4.25,7.09-9.02,25.04-16,31.92-41.25,32.65-3.38.12-6.53.09-9.28-.03-21.23-.66-26.66-7.09-28.28-25.49-.85-9.25-.87-13.15-.82-20.9,0-7.45,3.55-12.14,9.37-12.33l6.44-.19c10.34-.28,14.3,1.57,20.48,13.29,2.58,4.82,5.73,8.24,9.16,10.45.85.56,1.71,1.03,2.61,1.43,2.61,1.2,5.33,1.74,7.96,1.67,4.91-.14,9.54-2.4,12.9-6.41.56-.66,1.06-1.36,1.53-2.09.16-.26.31-.47.45-.7.28-.47.54-.96.8-1.48.31-.64.59-1.29.85-1.98.26-.68.52-1.41.73-2.14.21-.73.38-1.48.52-2.28.38-1.95.56-4.06.52-6.29-.47-20.69-.14-26.54-1.15-48.65-.19-3.57-.94-6.76-2.11-9.51-.45-1.06-.94-2.02-1.48-2.96-.56-.92-1.17-1.76-1.83-2.56-.42-.54-.89-1.03-1.34-1.53-3.81-3.78-8.74-5.75-13.74-5.61-4.89.14-9.84,2.35-13.76,6.88-.38.4-.73.82-1.08,1.29-1.36,1.81-2.58,3.92-3.59,6.37-4.91,11.91-9.16,14.52-19.52,14.82l-6.44.19c-5.9.16-9.79-4.56-10.12-13.81-.33-9.14-.45-12.75-.78-26.31-.26-11.7,7.33-16.23,18.11-16.63,1.48-.07,2.63-.09,3.59-.12.7-.02,1.29-.07,1.83-.09,2.58-.09,3.69-.14,8.53-.26,1.06-.05,2.25-.05,3.73-.09,1.36-.02,2.91-.07,4.7-.09,14.05-.26,23,.61,33.12,30.44,1.32,3.88,3.26,6.93,5.61,9.23.4.38.8.75,1.22,1.08.85.68,1.69,1.27,2.58,1.81,2.07,1.17,4.27,1.95,6.51,2.28,1.22-9.16,7.23-17.45,16.49-22.5l1.5-.82c1.5-.82,3.01-1.65,4.51-2.47-1.01-11.35-2.7-24.92-4.96-35.05-.8-3.57-1.81-6.69-3.1-9.37-5.52,5.03-12.8,7.77-20.55,7.77-.47,0-.94,0-1.41-.02-.85-.05-1.69-.07-2.51-.12-.8-.05-1.57-.07-2.42-.12-5.57-.26-10.73-.54-15.64-.8l-4.23-.23-.23-.02c-3.36-.21-6.6-.4-9.79-.63-10.01-.7-18.88-1.5-27.88-2.56-10.97-1.24-19.73-6.86-24.36-15.13-4.82.16-9.65.33-14.49.49-5.97,8.57-15.13,13.55-25.32,13.55-.7,0-1.41-.02-2.11-.07-4.56-.33-8.86-1.62-12.82-3.88-1.29-.73-2.56-1.6-3.88-2.63-1.24-.96-2.37-2.02-3.41-3.12-.16-.19-.33-.35-.47-.52-14.73,5.59-16.21,23.54-5.28,31.59,15.81,11.49,19.05,15.43,19.82,32.84,1.64,36.85,2.49,67.88,2.82,93.58.16,22.76-3.08,27.88-14.99,35.33-16.16,10.34-9.28,34.81,12.38,34.97,15.03.12,43.31-.49,76.41-1.39,13.48-.4,27.72-.82,42.16-1.32,8.08-.23,16.23-.54,24.4-.78,3.69-.12,6.91-.52,9.72-1.22-3.69-3.55-6.44-8.03-7.77-13.17-3.1-11.84,1.81-23.63,12.57-30"/>
          <path class="cls-3" d="M448.34,716.31c-2.72-6.91-3.41-12.21-3.57-18.09-.28-9.21,1.74-17.97,5.9-25.56-.26-2.39-.42-5.07-.59-8.1-.21-4.6-.38-8.71-.52-12.64-5.24-9.77-7.96-20.51-8.31-32.7-.28-9.98,1.27-19.56,4.56-28.35-7.4-22.31-27.67-33.8-51.16-33.1-1.15.02-2.33.07-3.5.19h-.19c-1.15.12-2.3.23-3.48.4-1.22.14-2.4.35-3.62.54-1.22.23-2.47.47-3.66.78-4.91,1.1-9.84,2.75-14.75,4.86-4.56,1.97-8.22,2.96-11.51,3.08-4.93.14-9.04-1.74-14.12-5.45-.35-.31-.75-.56-1.13-.85-.78-.52-1.55-.96-2.4-1.34-2.07-.94-4.35-1.39-6.86-1.32-3.08.09-6.51.96-10.36,2.77-6.15,2.89-11.63,5.71-17.12,8.62-3.34,1.79-6.62,3.59-10.1,5.47-.38.19-.75.42-1.13.61-6.08,3.34-9.89,8.2-11.27,13.37-.85,3.22-.78,6.55.28,9.7,1.27,3.78,3.92,7.3,8.06,10.1,10.12,6.79,12.8,9,13.55,24.5.23,6.06.61,12.71.85,19.64.21,5.26.38,10.71.4,16.21.05,10.78-.82,17.33-3.31,22.03-2,3.81-5.05,6.41-9.58,9-12.28,7.3-11.16,23.14-.59,30.37,2.56,1.79,5.73,3.05,9.37,3.52.92.14,1.88.21,2.84.23,9.47.23,19.19.19,28.87-.09,9.7-.28,19.33-.8,28.7-1.6,10.73-.94,17.48-8.24,19.03-16.09,2,7.89,9.23,14.84,20.08,15.03,1.08,0,2.18.05,3.29.07,7.8.09,16.28,0,24.66-.23,1.83-.07,3.66-.12,5.5-.19l.49-.02c1.86-.07,3.71-.14,5.52-.23h.05c2.16-.07,4.32-.21,6.41-.35,1.29-1.93,2.75-3.83,4.37-5.64,2.18-2.65,2.47-3.08.05-9.16M387.11,696.79c-5.45,2.84-8.43,7.33-9.42,12.12-1.13-4.09-3.78-7.77-8.1-10.15-11.39-5.97-14.12-9.14-15.53-31.38-.56-8.97-.94-21.89-1.13-37.84-.09-13.2,4.32-22.2,11.63-26.8,1.06-.68,2.14-1.27,3.19-1.79,1.06-.49,2.14-.92,3.19-1.27.94-.31,1.88-.52,2.8-.7.23-.05.47-.09.68-.12.8-.12,1.57-.21,2.37-.23.26-.02.49-.05.73-.05.26-.05.49-.05.73,0,.66-.02,1.29.02,1.93.12.56.05,1.13.12,1.64.26.19,0,.35.05.52.12.42.07.85.19,1.24.33.4.09.82.23,1.2.4.59.21,1.15.45,1.71.75.54.26,1.1.56,1.62.92.4.23.82.54,1.2.82.61.45,1.17.94,1.74,1.5.21.21.47.42.68.68.42.47.85.96,1.24,1.5.61.78,1.15,1.6,1.62,2.51.33.56.61,1.2.89,1.83.28.66.54,1.34.75,2.04.66,2.07,1.08,4.35,1.22,6.86.75,16.02,1.29,34.44,1.36,46.2,0,22.85-2.49,26.75-11.72,31.36"/>
          <path class="cls-3" d="M606.84,699.91c-8.53-8.08-21.63-13.67-40.87-13.98l-3.15-.07c-6.6-.07-9.4-7.94-2.04-11.56,3.01-1.5,5.12-2.77,7.19-4.18,2.72-1.71,5.31-3.57,10.73-8.9,3.99-3.95,7.38-7.99,10.15-12.4-.21-2.37-.35-4.74-.42-7.16-.12-3.64-.05-7.19.19-10.66-.73-.05-1.46-.07-2.18-.12-9.96-.7-18.39-3.62-25.11-8.64l-.09-.09c-1.13-.87-2.11-1.69-2.96-2.49-.94-.87-1.86-1.81-2.72-2.84-7.33-8.53-10.29-20.11-8.1-31.76,2.16-11.42,9.09-21.26,18.56-26.33.31-.16.63-.35.96-.49-.19-.07-.35-.12-.54-.19-1.13-.38-2.37-.78-3.64-1.15-1.32-.4-2.68-.8-4.16-1.15-.59-.14-1.17-.28-1.79-.45-3.12-.7-6.67-1.34-10.8-1.83-.78-.09-1.55-.16-2.37-.26-5.75-.56-12.59-.82-20.9-.56-35.42,1.03-57.66,16.98-67.01,38.66-3.71,8.5-5.38,17.9-5.1,27.65.35,11.98,3.24,21.82,8.24,30.35.33.56.63,1.1.99,1.64,6.01,9.63,6.39,14.99.96,23.04-.19.26-.35.52-.49.78-2.58,3.97-4.39,8.39-5.38,13.2-.63,3.19-.92,6.51-.82,9.98.16,5.38.78,9.47,2.94,14.89,3.1,7.87,3.43,11.93-.52,17.33-.38.47-.73.96-1.15,1.43-2.42,2.72-4.37,5.61-5.9,8.57-3.36,6.51-4.65,13.53-4.44,20.72.99,33.82,35.19,48.74,75.59,47.54,58.25-1.71,100.98-35.51,99.78-76.5-.23-7.8-2.16-15.97-6.53-23.23-2.54-2.77-4.89-5.71-7.07-8.78M523.13,587.17h.09c7.14-.21,12.75,4.3,16.09,12.26.35.8.66,1.62.94,2.47.16.45.28.89.42,1.32.26.92.49,1.83.7,2.8.23.94.42,1.95.59,2.96.4,2.54.68,5.28.75,8.2.52,17.24-5.24,29.6-16.21,30.07h-.19c-3.95.12-7.42-1.24-10.26-3.78-.54-.49-1.03-.99-1.5-1.53-1.27-1.46-2.4-3.17-3.38-5.14-.31-.63-.59-1.27-.87-1.97-.21-.54-.45-1.08-.61-1.62-.21-.61-.42-1.22-.61-1.86-.31-1.01-.56-2.07-.8-3.15-.21-.94-.4-1.95-.56-2.98-.4-2.56-.66-5.28-.73-8.17-.52-16.96,4.93-29.38,16.14-29.85M533.04,766.29c-27.69.8-38.99-4.42-39.27-13.95-.26-9.02,8.08-11.91,22.76-12.33l24.69-.73c19.89-.59,28.37,2.94,28.61,11.32.28,9.14-10.48,14.92-36.78,15.69"/>
          <path class="cls-3" d="M739.06,679.22l.05-.04.05-.03c4.58-2.56,6.93-3.92,7.8-15.06-3.03-2.02-6.67-3.12-10.45-3.03-1.2.04-2.4.19-3.62.49-.89.19-1.79.47-2.68.84-1.17.49-2.35,1.1-3.55,1.88-.56.38-1.13.8-1.69,1.27-.82.68-1.64,1.46-2.44,2.33-9.91,11.02-19.43,14.54-30.56,14.87-16.72.49-31.24-8.39-35.09-28.4-2.11-8.53,2-13.98,12.9-14.3l61.54-1.81c6.6-.19,11.89-1.92,15.71-4.98-.35-17.69-.96-33.71-1.6-50.48l-.02-1.32c-12.66-21.56-36.95-34.27-64.05-33.47-2.49.07-4.96.26-7.4.54-2.91,5.66-5.83,11.37-8.71,17.08l-10.38,20.39c-13.15,25.91-33.57,41.83-56.77,44.61-.28,3.52-.38,7.12-.26,10.78.09,3.26.33,6.48.68,9.61v.02c1.88,16.35,7.26,30.82,15.43,42.66,2.28,3.34,4.82,6.46,7.52,9.37,15.46,16.49,37.42,25.79,62.83,25.06,13.37-.4,29.92-3.69,44.3-13.37-.8-1.64-1.46-3.41-1.93-5.24-3.15-11.93,1.83-24.1,12.4-30.28M659.15,596.33c1.57-6.44,10.31-11.09,19.94-11.37,8.88-.26,16.23,3.83,17.05,10.69.56,4.46-3.88,7.49-10.62,7.7l-17.38.52c-6.53.19-10.19-2.63-9-7.54"/>
          <path class="cls-3" d="M798.48,692.3c-.61-5.48-1.09-15.6-.73-24.87.39-9.76,4.52-17.19,10.35-22.06-.2-4.41-.38-8.82-.53-13.26-6.53-9.42-9.99-20.29-10.35-32.62-.36-12.35,2.53-23.48,8.22-32.95-.78-27.45-1.36-53.75-1.95-77.11-.07-2.35-.34-4.5-.82-6.46-.16-.65-.35-1.31-.55-1.91-.8-2.42-1.94-4.5-3.33-6.25-.41-.5-.83-.99-1.29-1.42-.22-.2-.43-.43-.68-.64-3.5-3.11-8.1-4.63-13.29-4.47-3.87.11-8.07,1.15-12.36,3.16-11.26,5.38-21.31,10.42-29.97,15.63-13.44,8.06-14.14,23.61-1.53,32.12,10.93,7.27,13.47,12.3,14.03,31.5.31,9.86.66,19.16.99,28.24.7,19.25,1.43,37.56,1.8,58.25.07,3.01.11,6.08.15,9.21.06,5.24.05,9.73-.1,13.58-.26,7.11-.94,12.08-2.21,15.86-1.93,5.58-5.21,8.47-10.54,11.49-8.2,4.8-10.31,13.86-7.53,21.44,1.07,2.93,2.87,5.65,5.35,7.81,3.35,2.96,7.94,4.89,13.61,4.96,10.23.15,20.49.06,30.42-.23,9.48-.28,18.66-.74,27.29-1.39-11.18-6.91-13.32-17.35-14.46-27.61"/>
          <path class="cls-3" d="M937.84,666.88c-.54-18.5-12.04-38.02-38-50.44-7.91-3.81-20.59-9.69-29.42-13.68-8.12-3.81-10.96-8.47-11.09-12.95-.18-6.29,4.66-10.34,12.83-10.57,10.54-.31,15.77,5.83,19.8,19.77,1.31,4.52,3.47,7.91,6.2,10.32.36.34.77.66,1.18.98,3.22,2.4,7.03,3.48,10.84,3.37.59-.02,1.17-.06,1.76-.15.89-.1,1.75-.28,2.62-.52,2.03-.55,3.98-1.43,5.75-2.64.32-.22.62-.44.94-.69.6-.49,1.19-1,1.76-1.53.27-.27.55-.56.82-.85,2.62-2.87,4.55-6.64,5.33-11.23.12-.69.22-1.42.27-2.15.04-.4.07-.8.08-1.2.25-5.83-.17-15.31-.62-21.34-1.08-14.44-5.25-21.14-19.33-25.26-9.17-2.62-23.31-4.13-36.16-3.76-27.66.81-47.94,11.06-58.5,26.9-5.74,8.54-8.62,18.73-8.29,29.95.33,11.27,3.74,21.09,10.22,29.52,6.26,8.16,15.41,15.01,27.37,20.54,8.2,3.8,16.46,7.39,26.74,12.12,8.91,4.08,12.82,9.42,12.97,14.31.17,5.68-4.96,9.73-13.13,9.97-14.3.42-21.61-9.31-26.53-24.91-.88-2.82-2.22-5.15-3.87-7.03-.34-.36-.68-.73-1.04-1.05-.17-.18-.34-.34-.51-.48-.55-.5-1.13-.93-1.73-1.33-1.58-1.06-3.3-1.83-5.1-2.32-.9-.26-1.82-.44-2.74-.53-.94-.12-1.86-.16-2.8-.13-.59.02-1.17.06-1.76.12-1.76.22-3.48.67-5.15,1.33-.47.2-.9.4-1.35.6-.16.08-.32.17-.49.25v.02c-.46.23-.93.5-1.36.77-.53.35-1.01.69-1.5,1.05-.48.37-.94.78-1.4,1.19-.43.41-.87.85-1.28,1.33-.2.22-.41.48-.61.72-.59.74-1.13,1.54-1.62,2.37l-.47.86c-.24.48-.47.95-.66,1.45v.05c-.15.36-.31.74-.46,1.12-.13.38-.26.78-.37,1.19-.19.69-.36,1.37-.48,2.1-.08.35-.12.73-.18,1.09-.1.75-.17,1.53-.19,2.31-.32,8.45.11,18.14.69,23.46,1.34,11.87,3.87,18.26,13.63,22.51,1.26.55,2.55,1.08,3.88,1.55,3.23,1.24,6.6,2.32,10.08,3.23,11.6,3.07,24.26,4.39,35.74,4.05,50.9-1.49,67.35-32.71,66.68-55.74"/>
          <path class="cls-3" d="M81.38,468.5c-9.21-4.49-10.99-7.47-9-21.89,1.53-10.78,3.1-20.76,4.98-31.22.42-2.54,1.27-4.46,2.3-5.73.26-.33.54-.59.82-.82.38-.33.8-.56,1.2-.73.23-.09.49-.16.73-.21h.05c.23-.02.47-.05.73-.02,1.93.12,3.83,1.93,5.05,5.57,9.18,28.16,15.85,51.44,26.31,83.53.42,1.24.89,2.4,1.43,3.5.82,1.67,1.79,3.17,2.84,4.49.38.45.7.87,1.1,1.29.78.82,1.6,1.55,2.44,2.23.85.68,1.71,1.27,2.65,1.79.02.02.07.05.09.05,2.72,1.57,5.71,2.44,8.76,2.65.47.02.96.05,1.46.05,4.04,0,8.1-1.17,11.67-3.62h.02c3.12-2.11,5.87-5.19,7.89-9.23,10.73-21.49,21.75-42.61,32.32-63.7l6.98-14.09c.12-.21.23-.45.35-.66.19-.33.38-.68.61-.96.66-.99,1.41-1.76,2.18-2.33.28-.19.56-.38.87-.52h.02c.28-.14.59-.26.87-.35.28-.09.59-.14.87-.19.14-.02.33-.02.49-.02.12,0,.26,0,.38.02,2.63.16,4.82,2.61,4.98,6.62.38,12.68.42,17.85.54,31.59.14,14.38-2.72,17.43-13.81,21.35-12.64,4.84-15.5,21.66-5.99,31.03,3.17,3.17,7.82,5.5,13.98,6.2,9.37,1.08,18.13,1.86,27.48,2.51,3.24.23,6.55.45,9.98.66,1.34.07,2.7.14,4.11.21,4.91.28,10.08.54,15.62.82,1.6.07,3.19.14,4.84.21.35.02.68.02,1.03.02,3.08,0,5.85-.59,8.34-1.6.61-.26,1.22-.54,1.81-.85s1.13-.63,1.67-.99c.38-.26.75-.52,1.1-.82.28-.19.56-.4.82-.66.35-.28.7-.59,1.03-.92-.28-.26-.56-.54-.85-.8-2.51-2.37-4.89-4.89-7.14-7.54-16.35-19.4-24.31-45.12-22.38-72.44,1.01-14.23,4.58-27.36,10.26-39.06-.19-14.07-.28-27.2-.33-44.32.05-13.88,2.23-17.55,14.96-23.56,16.98-8.31,12.73-34.72-9.07-36.88-2.4-.26-4.79-.47-7.4-.66-3.9-.28-8.24-.49-13.76-.63-1.5-.05-3.1-.09-4.79-.14-1.13-.02-2.3-.05-3.52-.07h-1.01c-1.48,0-2.89.07-4.27.19-.66.07-1.32.16-1.97.26h-.02c-.63.12-1.27.23-1.9.38h-.02c-1.24.28-2.44.63-3.59,1.1h-.02c-.59.23-1.15.47-1.69.75h-.02c-.54.28-1.08.56-1.62.89-1.6.96-3.1,2.14-4.53,3.59-.23.23-.45.47-.7.73v.02c-.45.49-.89,1.03-1.36,1.6-1.55,1.97-2.98,4.35-4.35,7.14-13.58,28.3-25.53,52.71-38.87,79.49-2.44,4.89-4.96,9.89-7.49,15.03-.78,1.57-1.57,3.03-2.37,4.32-.54.85-1.08,1.64-1.64,2.37-.26.35-.54.73-.8,1.06-.54.66-1.1,1.27-1.64,1.79-.54.56-1.08,1.01-1.67,1.39-.21.16-.42.31-.61.42-.42.26-.82.47-1.24.66-.21.09-.4.16-.61.23-.68.23-1.34.33-2.02.33h-.42c-1.1-.07-2.21-.47-3.26-1.2-.38-.26-.78-.56-1.15-.94-.7-.66-1.41-1.48-2.09-2.47-.35-.52-.73-1.1-1.06-1.71-1.2-2.09-2.3-4.7-3.34-7.85-11.77-36.5-22.13-68.49-31.55-101.31-3.43-11.89-11.42-17.57-25.46-19.12-2.33-.26-4.39-.47-6.27-.68-.94-.09-1.86-.19-2.77-.31-1.39-.14-2.7-.28-4.11-.42-.92-.09-1.83-.19-2.8-.26-.99-.09-2.02-.21-3.12-.28-2.44-.19-5.19-.4-8.53-.61-.68-.05-1.36-.07-2-.07-21.96,0-28.47,24.05-14.61,34.15,11.23,7.89,14.14,15.13,10.95,36.57-1.1,7.19-2.49,16.04-3.95,25.6-3.05,19.47-6.65,41.83-9.4,58.98-4.06,25.39-7.47,30.32-21.87,36.22-18.53,7.77-13.27,34.95,5.85,36.92,7.4.78,16.07,1.5,24.76,2.11,10.52.75,21.02,1.32,29.01,1.6.35,0,.68.02,1.03.02,6.69,0,11.86-2.77,15.2-6.84,5.4-6.53,6.18-16.4,1.29-23.63-1.71-2.56-4.11-4.77-7.26-6.41"/>
          <path class="cls-3" d="M267.71,395.1c-.49.96-.99,1.95-1.46,2.96-.49,1.03-.96,2.07-1.41,3.12-.19.42-.35.85-.52,1.27-.31.73-.61,1.48-.89,2.25-.23.63-.47,1.27-.7,1.93-.12.31-.23.63-.33.96-.14.4-.28.8-.4,1.2-.28.85-.54,1.69-.8,2.56-.28.94-.54,1.88-.8,2.84-.07.28-.14.56-.21.85-.28,1.08-.52,2.18-.78,3.29-.26,1.2-.49,2.42-.7,3.64-.02.09-.05.21-.05.31-.14.75-.26,1.53-.38,2.3-.09.66-.19,1.34-.28,2-.07.45-.12.92-.16,1.36-.07.66-.16,1.32-.21,2-.09.89-.16,1.81-.23,2.72-.16,2.49-.26,4.93-.26,7.38,0,1.36.02,2.7.09,4.04.05,1.29.12,2.58.21,3.88.02.14.02.26.05.4.09,1.29.23,2.56.4,3.85.16,1.34.35,2.65.56,3.99,1.1,6.65,2.87,13.01,5.28,19,.49,1.2.99,2.37,1.5,3.55,0,.02.02.07.05.09.49,1.08,1.01,2.14,1.53,3.19.05.09.07.16.14.26.59,1.15,1.2,2.28,1.83,3.41.02.07.05.14.09.19.54.94,1.08,1.83,1.64,2.75.8,1.29,1.62,2.56,2.49,3.78.68.96,1.36,1.93,2.09,2.87,1.67,2.16,3.43,4.25,5.31,6.25.49.54.99,1.06,1.5,1.55.49.52,1.01,1.03,1.53,1.53v.02c.42.42.87.82,1.32,1.22.35.33.7.66,1.08.99,1.64,1.48,3.36,2.89,5.14,4.23,12.99,9.79,29.17,16,47.54,17.29,22.83,1.6,43.62-4.79,59.87-17.08-.21-10.69,5.75-20.44,15.69-24.99l.07-.02.05-.02c6.62-2.94,8.86-3.92,11.27-31.71,1.43-16.56,2.47-31.4,3.41-46.16-10.43-33.31-39.01-56.98-76.9-59.64-36.81-2.58-68.54,15.9-84.28,46.37M314.01,434.49c.96-33.35,15.2-50.45,32.02-49.28,17.26,1.22,31.36,22.03,30.42,56.58-.96,33.26-15.17,51.11-32.13,49.91-17.33-1.22-31.36-22.31-30.3-57.22"/>
          <path class="cls-3" d="M430.56,327.1c10.15,8.32,12.21,13.57,10.86,32.74-1.16,16.9-2.05,32.19-3.03,47.56-.98,15.28-2.04,30.7-3.53,47.95-2.53,28.95-5.33,34.38-16.85,39.46-8.62,3.96-11.61,12.7-9.66,20.52,1.83,7.19,7.88,13.57,17.64,14.66,10.16,1.16,20.36,2.09,30.3,2.79,8.53.6,16.88,1.05,24.78,1.27-3.12-3.8-5.27-8.4-6.09-13.52-1.84-11.38,3.45-22.29,13.26-27.82-2.97-4.59-3.3-11.27-2.54-25.54,2.51-45.43,6.01-92.66,9.13-133.97-3.87-5.57-5.58-12.07-4.74-18.65.7-5.56,3.15-10.63,7-14.81v-.02c-.04-.73-.11-1.47-.2-2.18-.09-.76-.23-1.48-.39-2.17-.62-2.85-1.75-5.3-3.25-7.36-.19-.25-.39-.5-.58-.72-.19-.27-.39-.5-.61-.7-.42-.45-.85-.88-1.32-1.29-.47-.41-.96-.8-1.45-1.14-.52-.34-1.04-.66-1.58-.98h-.02c-1.09-.6-2.26-1.08-3.48-1.47-1.55-.46-3.17-.77-4.91-.89-3.87-.27-8.15.35-12.61,1.92-11.74,4.24-22.27,8.25-31.38,12.58-14.2,6.68-16.41,22.09-4.73,31.81"/>
          <path class="cls-3" d="M506.78,332.45c10.15,8.31,12.21,13.58,10.85,32.74-2.28,33.73-3.57,60.95-6.55,95.51-1.6,18.32-3.31,27.22-7.28,32.58-1.95,2.65-4.49,4.44-7.8,6.06-.56.28-1.17.56-1.76.82-13.74,6.32-13.22,24.85-.96,32.25,2.51,1.5,5.5,2.54,8.93,2.94,1.06.12,2.09.23,3.15.33,9.11,1.01,18.25,1.83,27.15,2.44,9.49.68,18.74,1.13,27.41,1.34,21.3.59,29.08-24.4,13.15-34.25-10.78-6.44-12.4-9.82-11.16-32.7,1.1-19.78,2.37-39.88,3.76-59.71-.31-.23-.63-.47-.99-.68-.33-.26-.68-.49-1.03-.7l-.02-.05h-.02s-.02-.02-.05-.02c-.31-.21-.61-.42-.89-.66-.31-.21-.61-.45-.89-.7-.02,0-.05-.02-.07-.05-.05-.05-.09-.07-.12-.09-.42-.35-.82-.7-1.22-1.13-.02-.02-.05-.02-.07-.05-.07-.02-.12-.09-.19-.16-.16-.16-.33-.33-.49-.49-.35-.33-.68-.68-.99-1.03-.16-.16-.31-.35-.45-.52-.28-.33-.54-.66-.8-.99-.35-.45-.68-.89-.99-1.34-.02-.02-.05-.07-.07-.09-.52-.75-.99-1.53-1.41-2.33-.09-.16-.19-.35-.26-.52-.26-.47-.47-.94-.68-1.41-.42-.92-.78-1.86-1.08-2.82-.12-.33-.21-.66-.28-.99-.19-.63-.33-1.29-.47-1.95-.07-.4-.16-.82-.21-1.24-.02-.07-.05-.16-.05-.23-.05-.4-.09-.82-.14-1.22-.07-.45-.09-.92-.12-1.39-.05-1.01-.05-2.07.02-3.1.05-1.03.16-2.04.35-3.05.16-1.01.38-2,.68-2.98.02-.09.05-.16.07-.26.09-.38.23-.75.35-1.13.05-.14.09-.31.16-.45.14-.45.33-.89.52-1.34.14-.4.31-.75.49-1.13.21-.47.45-.94.68-1.39.23-.45.49-.89.75-1.34.49-.82,1.03-1.62,1.6-2.37.05-.05.09-.09.12-.14.56-.73,1.17-1.43,1.81-2.11.47-.52.96-1.01,1.48-1.48.12-.14.26-.26.4-.35.47-.45.96-.87,1.48-1.24.05-.05.09-.07.14-.12.4-.28.8-.56,1.2-.85.35-.26.73-.49,1.1-.73.09-.07.21-.14.33-.19.33-.19.66-.4,1.01-.56.31-.16.61-.35.92-.49.63-.33,1.29-.63,1.97-.89,1.39-18.72,2.75-36.64,3.97-53.08.16-2.35.12-4.51-.16-6.51-.09-.68-.21-1.34-.35-1.97-.56-2.49-1.5-4.67-2.7-6.53-.38-.56-.73-1.06-1.13-1.55-3.19-3.88-7.87-6.08-13.41-6.48-3.85-.26-8.13.35-12.59,1.93-11.74,4.23-22.27,8.27-31.38,12.59-1.9.89-3.59,1.95-5.07,3.12-8.67,6.95-9.65,18.18-1.97,26.47.7.78,1.48,1.48,2.33,2.21"/>
          <path class="cls-3" d="M566.42,401.56c.75.73,1.57,1.43,2.49,2.07,2.56,1.71,4.65,3.24,6.46,4.77,5.38,4.6,7.94,9.07,11.63,18.18,11.2,27.65,19.85,51.16,34.55,90.92,4.49,12.05,4.3,20.08-.35,29.41-2.33,4.67-4.04,8.01-6.58,12.68-.47.92-.94,1.74-1.43,2.49-.26.42-.52.82-.78,1.2-.21.31-.42.61-.63.87-.49.63-.99,1.2-1.46,1.67-.26.23-.52.47-.75.68-.31.26-.63.49-.94.73-.54.38-1.08.68-1.6.92-.45.19-.92.35-1.39.49-.85.21-1.71.31-2.61.31-.31,0-.61,0-.92-.02-2.4-.16-5.1-.99-8.17-2.25-3.57-1.41-6.98-2.21-10.15-2.42-.66-.05-1.29-.07-1.93-.07-3.29,0-6.29.61-9.04,1.69-.8.33-1.6.7-2.37,1.1-14.63,7.82-19.47,30.16-7.8,43.74.63.73,1.32,1.43,2.02,2.09.7.66,1.48,1.32,2.3,1.93,4.86,3.66,11.49,6.18,20.11,6.79.47.02.94.05,1.41.07.35.02.7.02,1.08.02.4.02.8.02,1.2.02h.09c.66,0,1.34-.02,2.02-.05.63-.02,1.27-.05,1.9-.09.56-.05,1.15-.12,1.71-.16.42-.05.87-.12,1.29-.16.49-.07.96-.14,1.46-.23,1.64-.26,3.29-.61,4.93-1.06.52-.14,1.06-.28,1.6-.45.54-.16,1.08-.33,1.62-.52,1.06-.35,2.14-.73,3.19-1.17.35-.14.73-.28,1.08-.47.52-.21,1.03-.45,1.57-.68.52-.23,1.03-.49,1.55-.75,1.83-.94,3.66-2,5.5-3.19.61-.38,1.2-.8,1.81-1.22.52-.38,1.06-.75,1.57-1.15.68-.52,1.34-1.03,2-1.57,1.17-.96,2.33-2,3.48-3.08.59-.54,1.15-1.1,1.71-1.69.73-.73,1.43-1.46,2.11-2.23.7-.75,1.39-1.55,2.07-2.37.68-.82,1.36-1.67,2.02-2.54.68-.85,1.34-1.74,2-2.65v-.02c.63-.89,1.24-1.81,1.88-2.75.89-1.39,1.79-2.82,2.65-4.32.96-1.69,1.93-3.45,2.87-5.28l10.38-20.41c1.79-3.52,3.59-7.05,5.38-10.55h.02c1.55-3.08,3.12-6.15,4.7-9.21,12.17-23.75,24.36-47.19,36.41-70.35,5.73-11.11,11.49-22.08,17.17-32.98,7.14-13.74,11.02-17.31,22.2-21.7,17.48-6.95,15.67-33.8-8.24-36.55-5.73-.63-12.66-1.24-20.06-1.76-7.92-.56-16.42-1.01-24.59-1.29-.26-.02-.52-.02-.78-.02-17.15,0-24.43,21.56-13.53,31.92,8.46,7.42,9.87,14.33,5.05,24.24-3.41,7-7.52,14.96-11.63,22.9-.16.33-.33.63-.49.92-.33.56-.66,1.08-1.01,1.57v.02c-.54.73-1.08,1.36-1.62,1.93v.02c-.38.35-.75.66-1.13.96-.4.28-.78.54-1.15.75-1.03.56-2.09.82-3.1.82h-.4c-.73-.05-1.46-.26-2.14-.59-.33-.14-.68-.33-.99-.59-.68-.45-1.32-1.03-1.9-1.79-.31-.35-.59-.73-.87-1.17-.54-.87-1.03-1.88-1.48-2.98-4.86-12.59-7.16-19.26-9.37-25.34-3.92-10.78-2.44-17.01,7.26-23.28,12.64-8.88,9.56-31.97-10.78-33.89-10.95-1.06-20.69-1.86-29.74-2.49-9.68-.68-18.58-1.17-27.41-1.53-.4-.02-.8-.02-1.2-.02-1.13,0-2.23.07-3.26.21-3.85.52-7.14,1.95-9.75,3.92-8.78,6.74-10.22,20.08-2,28.12"/>
        </g>
      </g>
    </g>
  </g>
</svg>