<?xml version="1.0" encoding="UTF-8"?>
<svg id="Layer_2" data-name="Layer 2" xmlns="http://www.w3.org/2000/svg" xmlns:xlink="http://www.w3.org/1999/xlink" viewBox="0 0 828.16 855.45">
  <defs>
    <style>
      .cls-1 {
        fill: none;
      }

      .cls-2 {
        clip-path: url(#clippath-1);
      }

      .cls-3 {
        fill: #fff;
      }

      .cls-4 {
        fill: #222;
      }

      .cls-5 {
        clip-path: url(#clippath);
      }
    </style>
    <clipPath id="clippath">
      <rect class="cls-1" y="255.09" width="828.16" height="600.36"/>
    </clipPath>
    <clipPath id="clippath-1">
      <rect class="cls-1" y="255.09" width="828.16" height="600.36"/>
    </clipPath>
  </defs>
  <g id="Layer_1-2" data-name="Layer 1">
    <g id="Artwork_1" data-name="Artwork 1">
      <g class="cls-5">
        <g class="cls-2">
          <path class="cls-4" d="M178.72,733.56l.07-.05.05-.02c5.93-3.2,8.38-4.51,8.82-22.43.09-4.06.12-8.15.12-12.16-3.39-2.89-7.7-4.41-12.12-4.41-7.31,0-14.8,4.18-18.44,13.05-9.71,24.61-16.83,31.21-41.93,31.21-3.39,0-6.49-.07-9.22-.28-21.08-1.26-26.29-7.82-27.36-26.15-.56-9.22-.49-13.1-.21-20.78.21-7.4,3.88-11.98,9.66-11.98h6.42c10.27,0,14.15,1.96,19.94,13.8,4.83,9.66,12.23,14.03,19.21,14.03,4.88,0,9.55-2.1,13-6,.65-.72,1.26-1.52,1.82-2.38.37-.56.72-1.14,1.05-1.77.33-.63.63-1.28.91-1.94.28-.68.54-1.38.77-2.1s.42-1.47.58-2.24c.42-1.94.68-4.02.7-6.26.14-20.59.63-26.36.28-48.35-.09-3.55-.75-6.75-1.82-9.55-.4-1.03-.86-2.01-1.4-2.94-.51-.91-1.1-1.8-1.73-2.61-.42-.54-.86-1.05-1.31-1.54-3.67-3.88-8.5-5.98-13.47-5.98-2.66,0-5.35.61-7.89,1.87-1.7.84-3.36,1.98-4.88,3.43-2.31,2.17-4.34,5.02-5.98,8.59-5.23,11.7-9.52,14.15-19.8,14.15h-6.42c-5.86,0-9.59-4.79-9.66-14.01-.07-9.1-.07-12.7,0-26.15.07-11.63,7.75-15.92,18.47-15.99,1.45,0,2.59-.02,3.53-.02.72-.02,1.31-.02,1.84-.02,2.61-.02,3.69-.05,8.5-.02,1.05,0,2.26.02,3.74.02,1.33.02,2.89.02,4.67.05,13.96.14,22.83,1.26,32.01,31.21,2.68,8.75,8.8,13.52,15.41,14.75,1.47-9.08,7.7-17.14,17.04-21.9l1.47-.75c1.54-.79,3.08-1.56,4.6-2.33-.68-11.3-1.98-24.82-3.92-34.95-3.32-17.42-12.19-24.12-35.25-24.4-7.38,0-15.22-.07-23.39-.07-6.58,0-13.33-.02-20.24-.02-3.46,0-6.96,0-10.48.02-24.68.07-50.59.21-75.12.65-22.27.35-27.06,22.97-14.66,32.68,15.36,11.84,18.47,15.85,18.75,33.2.56,36.65.49,67.51.07,93.03-.49,22.62-3.88,27.62-15.92,34.67-16.34,9.8-10.23,34.32,11.28,35.09,14.94.56,43.05.79,75.96.86,13.4,0,27.55,0,41.93-.07,8.03,0,16.15-.09,24.26-.09.86,0,1.68-.02,2.47-.05.79-.02,1.56-.07,2.33-.14.49-.05.98-.09,1.47-.16.65-.07,1.28-.16,1.89-.28.51-.07,1.03-.19,1.52-.3-3.57-3.62-6.14-8.15-7.33-13.28-2.73-11.86,2.52-23.42,13.35-29.44"/>
          <path class="cls-4" d="M340.43,761.81c-2.52-6.91-3.03-12.21-3.03-18.05,0-9.17,2.26-17.81,6.61-25.24-.19-2.38-.28-5.04-.35-8.03-.07-4.62-.12-8.71-.14-12.61-4.93-9.83-7.31-20.59-7.31-32.71,0-9.92,1.82-19.4,5.35-28.01-2.29-7.68-6.12-14.12-11.14-19.31-.28-.3-.56-.58-.86-.86-.28-.28-.58-.56-.86-.84-1.19-1.1-2.43-2.15-3.71-3.1-9.06-6.77-20.64-10.27-33.29-10.27h-.02c-1.12,0-2.24.02-3.39.09-.12,0-.23,0-.37.02-1.12.07-2.24.14-3.39.26-1.12.12-2.24.26-3.39.42-1.89.28-3.78.63-5.7,1.05-1.21.28-2.45.58-3.67.91-3.08.84-6.19,1.89-9.29,3.13-4.58,1.8-8.24,2.71-11.51,2.71-4.88,0-8.94-1.98-13.87-5.81-2.85-2.45-6.21-3.81-10.23-3.81-3.06,0-6.49.79-10.37,2.47-6.19,2.68-11.72,5.35-17.25,8.08-3.36,1.66-6.7,3.36-10.2,5.14-.37.19-.75.4-1.14.58-6.14,3.13-10.06,7.84-11.58,12.93-.93,3.15-.96,6.47,0,9.64,1.14,3.81,3.69,7.38,7.7,10.27,9.85,7.05,12.47,9.29,12.75,24.72.07,6.02.23,12.63.28,19.54.05,5.25.05,10.67-.07,16.13-.28,10.69-1.33,17.18-3.95,21.78-2.1,3.71-5.21,6.21-9.78,8.66-12.42,6.89-11.77,22.64-1.49,30.16,2.5,1.84,5.6,3.17,9.22,3.76.91.16,1.84.28,2.82.33,2.36.12,4.72.23,7.1.33,3.57.12,7.17.23,10.76.3,7.21.14,14.47.14,21.64,0,3.6-.07,7.17-.19,10.72-.3,2.36-.09,4.69-.21,7.03-.33,10.69-.63,17.6-7.68,19.38-15.43,1.75,7.89,8.73,15.01,19.52,15.5,8.61.44,18.26.65,27.78.65,2.57,0,5.14-.02,7.68-.05,2.52-.02,5.02-.07,7.47-.14.93-.02,1.84-.05,2.73-.07,1.35-1.91,2.85-3.74,4.48-5.49,2.26-2.57,2.54-2.99.33-9.13M292.72,709.87c-.63,22.69-3.24,26.5-12.56,30.79-5.49,2.66-8.59,7.05-9.71,11.77-1-4.09-3.53-7.82-7.75-10.3-11.14-6.28-13.75-9.5-14.52-31.63-.28-8.96-.28-21.78,0-37.63.28-13.12,4.93-21.92,12.33-26.29,4.27-2.57,8.66-3.78,12.77-3.78.65,0,1.31.02,1.94.09.63.07,1.26.14,1.89.28.63.12,1.24.26,1.82.44.61.16,1.19.37,1.77.61.56.23,1.12.51,1.68.79.63.35,1.24.72,1.84,1.14.42.3.82.61,1.21.93.49.4.93.84,1.38,1.28.44.44.86.93,1.26,1.42.4.51.77,1.05,1.12,1.59.89,1.4,1.61,2.94,2.19,4.62.33,1,.61,2.05.84,3.17.28,1.49.44,3.06.49,4.72.28,15.94.28,34.25,0,45.97"/>
          <path class="cls-4" d="M498.36,750.12c-8.24-8.24-21.1-14.15-40.2-15.03l-3.1-.14c-6.56-.28-9.1-8.17-1.7-11.56,3.03-1.4,5.16-2.61,7.26-3.95,2.75-1.61,5.37-3.39,10.93-8.52,4.09-3.78,7.56-7.73,10.44-12.02-.14-2.36-.21-4.74-.21-7.14,0-31.26,12.14-56.24,30.12-73.35-3.71-4.67-9.62-7.84-17.77-7.84-2.26,0-4.72.23-7.35.77-2.85.58-5.32.84-7.56.84s-4.39-.26-6.37-.7c-.4-.09-.79-.19-1.19-.3-.3-.07-.61-.16-.91-.23-.26-.07-.51-.14-.75-.23-2.03-.61-4.06-1.35-6.3-2.17-.42-.16-.86-.33-1.33-.49-1.14-.42-2.33-.84-3.62-1.26-.75-.26-1.54-.51-2.36-.75-.56-.16-1.12-.33-1.7-.49-3.48-.98-7.54-1.91-12.47-2.64-.82-.12-1.66-.23-2.52-.35-.86-.09-1.75-.21-2.68-.3-5.07-.51-10.95-.84-17.88-.84-35.2,0-57.76,15.17-67.7,36.44-3.9,8.36-5.86,17.65-5.86,27.34,0,11.91,2.59,21.78,7.31,30.4.3.56.61,1.12.93,1.66,5.7,9.73,5.91,15.08.28,22.9-.19.26-.35.49-.51.75-2.68,3.9-4.6,8.24-5.72,12.98-.72,3.15-1.1,6.44-1.1,9.9,0,5.35.49,9.43,2.47,14.87,2.85,7.91,3.08,11.95-1.03,17.21-.35.47-.75.93-1.17,1.4-2.5,2.64-4.51,5.42-6.12,8.33h-.02c-.12.23-.23.47-.35.7-.19.35-.37.7-.54,1.05-2.87,5.88-4.11,12.21-4.11,18.72,0,33.62,33.55,49.4,73.72,49.4,57.92,0,101.34-32.33,101.34-73.07,0-7.75-1.68-15.92-5.79-23.25-2.45-2.85-4.72-5.86-6.79-9.01M418.48,635.73h.09c7.1,0,12.56,4.65,15.64,12.65.33.79.61,1.63.86,2.47.14.42.26.86.37,1.33.23.91.44,1.82.63,2.78.19.96.35,1.96.49,2.96.33,2.54.51,5.28.51,8.17,0,17.11-6.07,29.25-16.97,29.39h-.21c-6.54,0-11.6-3.99-14.73-10.83-.28-.63-.56-1.31-.82-1.98-.14-.4-.28-.82-.42-1.24-.28-.84-.54-1.7-.77-2.61-.23-.89-.44-1.82-.63-2.8-.19-.96-.33-1.94-.47-2.96-.33-2.54-.49-5.28-.49-8.15,0-16.86,5.77-29.04,16.9-29.18M423.12,813.94c-27.55,0-38.61-5.49-38.61-15.01,0-8.94,8.38-11.56,22.97-11.56h24.54c19.8,0,28.11,3.74,28.11,12.05,0,9.1-10.86,14.52-37,14.52"/>
          <path class="cls-4" d="M630.33,733.45l.05-.02.07-.05c4.6-2.43,6.98-3.69,8.15-14.71v-.02c-1.38-.96-2.87-1.75-4.46-2.31-1.84-.65-3.83-1-5.84-1-1.77,0-3.6.26-5.39.84-.61.19-1.19.42-1.8.68-1.49.63-2.96,1.52-4.39,2.61-.56.44-1.12.91-1.68,1.45-.28.26-.54.51-.82.79-10.16,10.65-19.73,13.87-30.79,13.87-16.62,0-30.79-9.22-34.04-29.23-1.82-8.54,2.4-13.82,13.26-13.82h61.16c6.56,0,11.86-1.59,15.76-4.51.16-17.58.02-33.5-.12-50.19v-1.31c-11.93-21.78-35.69-35.11-62.66-35.11-19.33,0-38.08,6.77-53.11,18.96-2.64,2.15-5.18,4.46-7.59,6.93-7.98,8.24-14.47,18.26-18.84,29.79-3.95,10.39-6.16,22.01-6.16,34.67,0,3.24.14,6.42.4,9.55,1.4,16.34,6.35,30.91,14.12,42.91,2.17,3.34,4.55,6.49,7.12,9.41,14.89,16.88,36.46,26.78,61.75,26.78,13.28,0,29.81-2.78,44.4-11.98-.75-1.66-1.35-3.43-1.77-5.25-2.78-11.95,2.52-23.88,13.21-29.72M553.34,648.75c.89-3.17,3.53-5.84,7.14-7.73.91-.47,1.87-.89,2.89-1.26.37-.14.77-.28,1.17-.4.68-.21,1.4-.4,2.12-.56.7-.16,1.45-.3,2.19-.42,1.49-.21,3.03-.33,4.62-.33,1.17,0,2.29.07,3.39.21.35.05.72.09,1.07.16.49.09.96.19,1.4.3.61.14,1.19.3,1.77.51,5.04,1.73,8.57,5.23,9.01,9.92.42,4.46-4.09,7.33-10.79,7.33h-17.28c-6.47,0-10.06-2.87-8.73-7.75"/>
          <path class="cls-4" d="M688.97,748.18c-.44-5.46-.63-15.52,0-24.72.68-9.69,5-16.97,10.93-21.62-.07-4.39-.12-8.78-.14-13.19-6.21-9.55-9.34-20.45-9.34-32.71s3.2-23.25,9.13-32.5c.02-20.03.12-39.43.21-57.52-17.67,24.33-40.2,28.41-51.64,28.71.35,3.2.49,6.98.49,11.56.02,9.8.09,19.05.16,28.06.14,19.17.33,37.38.09,57.94-.02,2.99-.07,6.02-.12,9.13-.09,5.21-.23,9.66-.49,13.49-.47,7.05-1.28,12-2.66,15.71-2.05,5.46-5.39,8.26-10.79,11.11-8.29,4.53-10.65,13.45-8.12,21.08.98,2.94,2.71,5.7,5.09,7.91,3.24,3.03,7.77,5.09,13.38,5.32,2.54.12,5.09.21,7.61.28,1.91.07,3.83.12,5.74.16,9.34.21,18.56.26,27.41.12,2.29-.02,4.58-.07,6.84-.14,2.24-.07,4.46-.14,6.65-.21,1.05-.05,2.1-.09,3.13-.14-10.9-7.19-12.72-17.63-13.56-27.85"/>
          <path class="cls-4" d="M791.88,675.76c-7.75-4.04-20.17-10.23-28.83-14.45-7.96-4.02-10.65-8.75-10.65-13.19,0-6.28,4.93-10.16,13.05-10.16,10.48,0,15.5,6.28,19.1,20.24,2.66,10.34,10.11,15.1,17.67,15.1h.02c.56,0,1.1-.02,1.66-.09h.16c.4-.05.77-.09,1.17-.16.44-.07.91-.16,1.35-.28.44-.09.89-.23,1.33-.37.42-.12.82-.28,1.21-.44.33-.12.65-.26.96-.42.42-.16.82-.37,1.21-.61.37-.19.72-.4,1.05-.61.54-.33,1.03-.7,1.52-1.07.49-.37.96-.79,1.42-1.21,1.61-1.52,3.03-3.34,4.13-5.44.49-.91.91-1.84,1.26-2.85s.65-2.08.89-3.2c.14-.75.26-1.49.35-2.29.05-.4.09-.79.12-1.19.42-5.79.28-15.24,0-21.22-.63-14.38-4.6-21.15-18.47-25.66-9.03-2.89-23.04-4.79-35.81-4.79-27.5,0-47.97,9.59-58.9,25.05-5.95,8.33-9.1,18.35-9.1,29.48s3.1,21.06,9.29,29.62c5.98,8.31,14.87,15.38,26.59,21.2,8.03,4.02,16.13,7.82,26.22,12.82,8.73,4.3,12.47,9.73,12.47,14.59,0,5.65-5.21,9.52-13.33,9.52-14.22,0-21.2-9.87-25.63-25.52-2.08-7.35-7.31-11.56-13.17-12.86-.65-.16-1.33-.26-2.01-.33-.05,0-.07,0-.09-.02-.68-.05-1.35-.09-2.03-.09-.79,0-1.59.05-2.36.14-.05.02-.12.02-.16.02-.79.12-1.56.26-2.33.44-.54.14-1.07.28-1.59.47-.02,0-.05.02-.05.02-.7.23-1.38.51-2.05.82-.05.05-.12.09-.21.12-1.8.89-3.5,2.05-5,3.53-1.66,1.61-3.08,3.6-4.13,5.91v.05c-.05.12-.12.21-.16.33-.28.68-.56,1.4-.79,2.17-.19.58-.35,1.21-.47,1.84-.09.4-.16.82-.23,1.24-.09.68-.19,1.4-.23,2.12-.56,8.4-.42,18.05,0,23.34.98,11.84,3.32,18.23,12.89,22.76,1.24.58,2.5,1.14,3.81,1.66,3.17,1.33,6.49,2.47,9.92,3.48,11.44,3.39,23.98,5.07,35.39,5.07,50.61,0,67.86-30.51,67.86-53.41,0-18.4-10.86-38.12-36.28-51.22"/>
          <path class="cls-4" d="M73.25,506.21c7.38.26,16.06.37,24.68.37,10.51,0,20.96-.16,28.88-.44,21.85-.63,26.15-29.18,7.61-37.28-9.43-3.81-11.42-6.61-10.41-21.06.77-10.78,1.61-20.8,2.73-31.3.16-1.59.49-2.94.96-4.09.16-.37.33-.72.49-1.03,1-1.8,2.38-2.75,3.83-2.75,1.89,0,3.92,1.66,5.37,5.21,11.07,27.27,19.31,49.89,31.94,80.96.49,1.21,1.05,2.33,1.66,3.39,4.3,7.4,11.46,11.11,18.61,11.11,5.51,0,11.02-2.22,15.2-6.68.75-.79,1.47-1.68,2.15-2.64,1-1.45,1.87-3.06,2.61-4.83,9.17-22.06,18.61-43.75,27.64-65.39l5.91-14.45c.4-.93.82-1.75,1.31-2.43.23-.35.49-.68.75-.96.26-.28.54-.54.79-.75.28-.24.56-.42.84-.58.28-.19.56-.3.84-.42.58-.21,1.17-.33,1.73-.33,1.14,0,2.22.42,3.13,1.26.12.12.26.23.37.37.23.23.47.54.68.89.3.49.56,1.05.77,1.66.19.63.35,1.31.42,2.05,1.28,12.56,1.7,17.7,2.75,31.31,1.12,14.22-1.47,17.46-12.19,22.11-16.34,7.61-13.82,35.32,10.51,36.37,9.34.4,18.09.56,27.41.56,8.33,0,17.14-.12,27.2-.33,1.56-.05,3.13-.07,4.74-.12.82,0,1.63-.02,2.45-.05,6.58-.19,11.79-2.94,15.27-6.89-2.99-2.36-5.81-4.93-8.5-7.68-17.56-18.09-27.24-43.05-27.24-70.27,0-14.17,2.64-27.48,7.47-39.48-1.17-13.94-2.17-26.96-3.41-43.91-.91-13.73.98-17.53,13.17-24.37,16.29-9.45,10.23-35.3-11.56-35.95-1.17-.04-2.36-.09-3.57-.09h-.02c-1.24-.02-2.52-.02-3.85-.02-.84,0-1.7,0-2.61.02-.91,0-1.89,0-2.87.03-.79.02-1.61.05-2.47.07-2.59.07-5.49.19-8.75.33-1.07.05-2.19.12-3.36.16-.58.03-1.19.07-1.8.09-12.19.63-20.36,5-25.7,18.37-11.49,29.04-21.64,54.07-32.99,81.54-2.12,5-4.23,10.16-6.42,15.43-.37.89-.75,1.75-1.14,2.57-1.66,3.57-3.46,6.3-5.35,8.12-.23.26-.51.49-.77.7-.77.65-1.56,1.14-2.36,1.47-.79.33-1.61.49-2.4.49-1.77,0-3.55-.79-5.3-2.47l-.56-.56c-.56-.58-1.1-1.28-1.66-2.05-.56-.77-1.1-1.64-1.63-2.59-.16-.33-.35-.65-.54-1-.16-.33-.35-.7-.54-1.05-.35-.72-.7-1.49-1.05-2.31-.16-.4-.35-.82-.51-1.24-14.24-35.37-26.71-66.37-38.33-98.24-4.25-11.56-12.56-16.62-26.57-17.18-.58-.02-1.14-.04-1.7-.07-1.1-.05-2.12-.07-3.1-.12-1-.05-1.96-.09-2.87-.12-.47,0-.93-.02-1.38-.05-1.35-.05-2.71-.09-4.09-.14-.47-.02-.96-.02-1.42-.05-.93-.02-1.89-.05-2.92-.07-2.05-.02-4.3-.05-6.91-.05h-3.17c-23.46.14-28.97,25.65-14.1,34.97,11.72,7.05,15.08,14.01,13.4,35.51-.56,7.19-1.33,16.06-2.12,25.66-1.68,19.52-3.67,41.93-5.21,59.13-2.26,25.42-5.28,30.58-19.17,37.42-17.84,9.01-10.72,35.58,8.38,36.21"/>
          <path class="cls-4" d="M307.03,410.28c-.4,3.53-.58,7.14-.58,10.81,0,28.81,11.65,53.51,30.86,69.54,2.5,2.1,5.16,4.06,7.91,5.86,13.56,8.8,30.02,13.8,48.32,13.8,22.74,0,42.91-7.75,58.18-21.08-.96-10.6,4.27-20.66,13.82-25.87l.05-.02.07-.05c6.35-3.36,8.5-4.48,8.96-32.19.26-16.53.28-31.31.16-46.01-12.68-32.29-42.65-53.76-80.38-53.76s-66.88,20.54-80.35,51.83c-3.6,8.36-6.02,17.46-7.03,27.15M391.02,367.86c17.18,0,32.61,19.68,34.11,54,1.33,33.06-11.49,51.73-28.41,51.73s-32.61-19.96-34.04-54.63c-1.33-33.13,11.56-51.1,28.34-51.1"/>
          <path class="cls-4" d="M470.79,304.39c10.65,7.54,13.03,12.61,13.03,31.7.02,16.83.21,32.01.3,47.3.09,15.27.12,30.63-.16,47.83-.49,28.9-2.89,34.46-13.94,40.32-8.26,4.51-10.65,13.38-8.15,20.99,2.29,7,8.73,12.93,18.49,13.33,2.54.12,5.09.21,7.61.28,1.91.07,3.83.12,5.74.16,9.34.21,18.56.26,27.41.12,2.29-.02,4.58-.07,6.84-.14,2.24-.07,4.46-.14,6.65-.21.21-.02.42-.02.63-.02-3.39-3.55-5.81-7.98-6.98-12.98-2.59-11.21,1.89-22.36,11.23-28.53-3.29-4.32-4.09-10.93-4.3-25.14-.68-45.22-.49-92.24-.28-133.42-4.25-5.25-6.37-11.58-6-18.19.3-5.58,2.38-10.79,5.91-15.22-.12-.82-.23-1.59-.4-2.33-.14-.65-.3-1.31-.49-1.91-.77-2.59-1.94-4.81-3.39-6.65-.33-.37-.63-.75-.96-1.1-.33-.33-.65-.63-.98-.96-1.26-1.12-2.68-2.05-4.25-2.78l-.02-.02c-.72-.33-1.49-.61-2.26-.84-.33-.09-.68-.16-1-.26-.47-.12-.93-.21-1.42-.3-.4-.05-.79-.12-1.19-.16-.51-.07-1-.09-1.52-.12-.58-.02-1.14-.02-1.73-.02-.23,0-.44,0-.65.02-.54,0-1.1.05-1.66.12-1,.09-2.03.28-3.06.51-2.08.47-4.2,1.17-6.37,2.1-2.82,1.26-5.6,2.47-8.29,3.71-1,.44-2.01.91-2.99,1.38-2.94,1.38-5.79,2.73-8.54,4.09-3.64,1.82-7.12,3.64-10.41,5.49-13.59,7.61-14.73,23.04-2.45,31.87"/>
          <path class="cls-4" d="M546.73,304.39c10.62,7.54,13.03,12.61,13.03,31.7.07,33.62.7,60.67.14,95.13-.3,18.28-1.38,27.22-4.93,32.8-1.77,2.78-4.13,4.74-7.33,6.58-.54.3-1.12.63-1.7.93-13.17,7.19-11.35,25.56,1.33,32.03,2.57,1.31,5.6,2.15,9.03,2.29,1.05.05,2.08.09,3.13.12,1.49.07,2.99.12,4.48.16,1.91.07,3.83.12,5.74.16,9.31.21,18.54.26,27.41.12,2.29-.02,4.58-.07,6.82-.14,2.26-.07,4.48-.14,6.68-.21,1.07-.05,2.17-.09,3.24-.14,21.15-.91,27.15-26.22,10.65-34.88-11.14-5.65-12.96-8.87-13.31-31.66-.3-19.68-.44-39.71-.47-59.46-.63-.4-1.33-.79-2.05-1.21l-.07-.05-.07-.02c-10.69-6.4-15.73-18.82-12.58-30.91,2.15-8.15,7.54-14.54,14.82-18.14.09-18.68.21-36.53.28-52.92.02-7.49-2.29-13.12-6.14-16.76-.44-.42-.93-.82-1.42-1.19-.23-.19-.47-.33-.7-.47-.28-.21-.56-.4-.84-.56-.3-.19-.58-.33-.89-.49-.26-.12-.49-.26-.75-.37-.35-.14-.68-.3-1.05-.42-.21-.09-.42-.16-.63-.23-.4-.14-.79-.28-1.21-.4-.12-.02-.26-.05-.37-.07-1.52-.37-3.1-.58-4.79-.61-.16,0-.35-.02-.51-.02-.93,0-1.87.05-2.85.16-1,.09-2.03.28-3.08.51-2.05.47-4.2,1.17-6.35,2.1-2.85,1.26-5.6,2.47-8.29,3.71-1,.44-2.01.91-2.99,1.38-2.94,1.38-5.79,2.73-8.54,4.09-3.64,1.82-7.12,3.64-10.41,5.49-1.82,1.03-3.41,2.17-4.79,3.43-8.12,7.49-8.33,18.7-.14,26.38.75.72,1.59,1.4,2.47,2.05"/>
          <path class="cls-4" d="M610.65,368.73c.79.68,1.68,1.31,2.64,1.89,2.64,1.54,4.83,2.92,6.7,4.3,5.65,4.18,8.52,8.43,12.82,17.21,13.03,26.64,23.25,49.33,40.6,87.73,5.28,11.63,5.63,19.59,1.68,29.18-1.21,2.96-2.26,5.39-3.39,7.96-.7,1.59-1.42,3.24-2.26,5.07-.21.47-.4.91-.61,1.33-.61,1.28-1.24,2.4-1.89,3.39-.65.98-1.31,1.8-2.01,2.47-.14.14-.26.26-.4.37-1.87.84-3.69,1.66-5.46,2.47l-.02.02c-.42.05-.86.07-1.33.07-2.4,0-5.11-.63-8.29-1.66-1-.33-2.01-.61-2.99-.84-.98-.21-1.94-.4-2.89-.54-.37-.07-.75-.12-1.12-.14-.75-.12-1.47-.16-2.17-.16-1.14-.05-2.24-.02-3.34.07-.7.05-1.4.14-2.08.26-1.38.23-2.71.58-3.95,1.03-.84.28-1.66.61-2.43.98-.4.19-.77.4-1.17.61-.75.42-1.49.86-2.17,1.35-.37.26-.7.51-1.05.79-.68.54-1.33,1.1-1.91,1.68-12.72,12.42-12.05,38.19,8.5,46.83,4.18,1.77,9.22,2.82,15.13,2.87.21.02.44.02.68.02,18.86,0,39.76-10.18,53.39-37.61.93-1.89,1.84-3.88,2.71-5.93l3.95-9.29,4.95-11.65c13.24-31.35,26.64-62.21,39.8-92.59,4.95-11.44,9.87-22.71,14.73-33.92,6.14-14.08,9.73-17.88,20.52-23.04,16.83-8.1,13.17-34.6-10.72-35.65-2.15-.09-4.46-.16-6.91-.21-1.03-.02-2.05-.05-3.1-.07-5.88-.09-12.4-.09-19.07-.02-1.03,0-2.05.02-3.08.05-2.05.02-4.11.07-6.16.14-2.05.05-4.11.12-6.14.19-17.63.56-23.67,22.97-11.98,32.64,8.87,6.75,10.79,13.52,6.7,23.67-2.89,7.19-6.42,15.36-9.94,23.53-.82,1.89-1.77,3.43-2.78,4.6-.19.21-.35.4-.54.56-.35.37-.7.68-1.05.93-.37.28-.72.51-1.1.7-.96.51-1.91.75-2.87.75-1.52,0-3.03-.61-4.44-1.87-.09-.07-.21-.14-.28-.23-.65-.61-1.28-1.35-1.84-2.24-.3-.44-.58-.91-.84-1.42-.14-.26-.26-.51-.4-.79-5.72-12.12-8.47-18.61-11.07-24.44-4.67-10.44-3.6-16.72,5.56-23.6,11.91-9.66,7.26-32.36-13.03-32.85-10.95-.28-20.64-.4-29.67-.4-9.64,0-18.51.14-27.29.4-1.56.05-3.03.21-4.41.49-3.78.79-6.91,2.4-9.36,4.58-8.24,7.26-8.75,20.59-.05,27.99"/>
        </g>
      </g>
    </g>
    <g>
      <path class="cls-4" d="M420.61,119.02c-4.01,11.91-15.58,7.12-15.58,7.12-9.12,2.68-10.9-11.13-10.9-11.13-4.34-8.45,9.24-12.12,9.24-12.12,8.22-7.68,15.45.45,15.45.45,11.24,6.9,1.79,15.68,1.79,15.68Z"/>
      <path class="cls-4" d="M521.4,78.11c-4.59-3.97-11.44-4.34-16.96-5.67-7.11-1.72-14.38-2.74-21.7-2.63-3.01.04-5.37.12-7.28.25-7.03.46-12.75-5.49-12.1-12.5.1-1,.22-2.09.4-3.26,1.57-9.93.15-20.13-2.33-29.88-1.75-6.86-4.87-14.47-11.58-16.69-3.57-1.18-7.55-.57-11.1-1.83-3.16-1.12-5.66-3.63-8.76-4.9-4.92-2.03-10.61-.67-15.37,1.72-16.06,8.09-24.27,26.38-27.92,43.99-.28,1.33-.57,2.73-1.04,4.03-.9,2.48-2.47,4.56-5.81,5.05-2.58.37-5.21-.31-7.41-1.71-16.24-10.24-38.74-12.02-54.67-1.14-14.93,10.22-21.31,32.53-11.37,47.65,5.37,8.18,14.26,13.24,22.81,18.01,3.56,1.99,7.51,4.41,5.88,10.15-.7,2.45-2.28,4.55-4.25,6.16-10.09,8.21-15.16,21.95-13.12,34.74,1.92,12.02,11.5,26.2,23.83,29.01,13.47,3.08,27.31-4.27,37.88-12.26,4.87-3.68,15.79-17.05,21.57-15.12,2.6.87,4.56,2.98,6.44,4.99,5.53,5.95,9.91,21.66,18.02,22.31,4.24.35,8.5-.91,12.74-.54,5.64.5,10.88,3.85,16.53,3.56,3.93-.2,7.57-2.15,10.66-4.59,12.29-9.63,17.02-27.77,11-42.17-1.82-4.39-4.59-9.26.94-13.44,1.35-1.02,2.95-1.62,4.61-1.9,20.45-3.44,38.02-19.65,43.4-39.61,2.02-7.52,1.94-16.67-3.94-21.78ZM449.81,124.94s-14.92,7.78-21.78,4.35c-6.86-3.44-3.06,15.25-3.06,15.25l-10.66-7.01c-1.48-.98-3.48-.57-4.45.91l-7.67,16.08s-3.35-11.82-1.37-18.33c2.43-8-23.62,6.82-24.27,7.19.54-.52,15.16-14.93,10.67-18.29-4.58-3.44-25.17-3.06-25.17-3.06,0,0,20.52-6.99,20.52-13.09s-13.18-13.49-13.99-13.96c.96.33,17.81,6.22,21.51,3.63,3.82-2.67,1.21-9.13,1.21-9.13l-6.35-13.96c.47.35,15.34,11.42,17.53,14.09,2.99,3.68,6.48.76,7.24-2.67.77-3.44,7.25-16.78,7.25-16.78,0,0,.38,19.45,3.43,20.98,3.06,1.53,17.54-9.54,17.54-9.54,0,0-1.14,15.26-5.33,18.31-4.2,3.05,2.67,4.95,6.48,4.95s13.72,2.29,13.72,2.29c0,0-19.83,6.48-19.83,8.77s16.83,9,16.83,9Z"/>
      <path class="cls-3" d="M420.61,119.02c-4.01,11.91-15.58,7.12-15.58,7.12-9.12,2.68-10.9-11.13-10.9-11.13-4.34-8.45,9.24-12.12,9.24-12.12,8.22-7.68,15.45.45,15.45.45,11.24,6.9,1.79,15.68,1.79,15.68Z"/>
      <path class="cls-4" d="M420.61,119.02c-4.01,11.91-15.58,7.12-15.58,7.12-9.12,2.68-10.9-11.13-10.9-11.13-4.34-8.45,9.24-12.12,9.24-12.12,8.22-7.68,15.45.45,15.45.45,11.24,6.9,1.79,15.68,1.79,15.68Z"/>
    </g>
  </g>
</svg>