<?xml version="1.0" encoding="UTF-8"?>
<svg id="Layer_2" data-name="Layer 2" xmlns="http://www.w3.org/2000/svg" viewBox="0 0 224.91 201.6">
  <defs>
    <style>
      .cls-1 {
        fill: #fff;
      }

      .cls-2 {
        fill: #222;
      }
    </style>
  </defs>
  <g id="Layer_1-2" data-name="Layer 1">
    <g>
      <path class="cls-2" d="M118.99,119.02c-4.01,11.91-15.58,7.12-15.58,7.12-9.12,2.68-10.9-11.13-10.9-11.13-4.34-8.45,9.24-12.12,9.24-12.12,8.22-7.68,15.45.45,15.45.45,11.24,6.9,1.79,15.68,1.79,15.68Z"/>
      <path class="cls-2" d="M219.78,78.11c-4.59-3.97-11.44-4.34-16.96-5.67-7.11-1.72-14.38-2.74-21.7-2.63-3.01.04-5.37.12-7.28.25-7.03.46-12.75-5.49-12.1-12.5.1-1,.22-2.09.4-3.26,1.57-9.93.15-20.13-2.33-29.88-1.75-6.86-4.87-14.47-11.58-16.69-3.57-1.18-7.55-.57-11.1-1.83-3.16-1.12-5.66-3.63-8.76-4.9-4.92-2.03-10.61-.67-15.37,1.72-16.06,8.09-24.27,26.38-27.92,43.99-.28,1.33-.57,2.73-1.04,4.03-.9,2.48-2.47,4.56-5.81,5.05-2.58.37-5.21-.31-7.41-1.71-16.24-10.24-38.74-12.02-54.67-1.14C1.23,63.15-5.15,85.46,4.79,100.58c5.37,8.18,14.26,13.24,22.81,18.01,3.56,1.99,7.51,4.41,5.88,10.15-.7,2.45-2.28,4.55-4.25,6.16-10.09,8.21-15.16,21.95-13.12,34.74,1.92,12.02,11.5,26.2,23.83,29.01,13.47,3.08,27.31-4.27,37.88-12.26,4.87-3.68,15.79-17.05,21.57-15.12,2.6.87,4.56,2.98,6.44,4.99,5.53,5.95,9.91,21.66,18.02,22.31,4.24.35,8.5-.91,12.74-.54,5.64.5,10.88,3.85,16.53,3.56,3.93-.2,7.57-2.15,10.66-4.59,12.29-9.63,17.02-27.77,11-42.17-1.82-4.39-4.59-9.26.94-13.44,1.35-1.02,2.95-1.62,4.61-1.9,20.45-3.44,38.02-19.65,43.4-39.61,2.02-7.52,1.94-16.67-3.94-21.78ZM148.19,124.94s-14.92,7.78-21.78,4.35c-6.86-3.44-3.06,15.25-3.06,15.25l-10.66-7.01c-1.48-.98-3.48-.57-4.45.91l-7.67,16.08s-3.35-11.82-1.37-18.33c2.43-8-23.62,6.82-24.27,7.19.54-.52,15.16-14.93,10.67-18.29-4.58-3.44-25.17-3.06-25.17-3.06,0,0,20.52-6.99,20.52-13.09s-13.18-13.49-13.99-13.96c.96.33,17.81,6.22,21.51,3.63,3.82-2.67,1.21-9.13,1.21-9.13l-6.35-13.96c.47.35,15.34,11.42,17.53,14.09,2.99,3.68,6.48.76,7.24-2.67.77-3.44,7.25-16.78,7.25-16.78,0,0,.38,19.45,3.43,20.98,3.06,1.53,17.54-9.54,17.54-9.54,0,0-1.14,15.26-5.33,18.31-4.2,3.05,2.67,4.95,6.48,4.95s13.72,2.29,13.72,2.29c0,0-19.83,6.48-19.83,8.77s16.83,9,16.83,9Z"/>
      <path class="cls-1" d="M118.99,119.02c-4.01,11.91-15.58,7.12-15.58,7.12-9.12,2.68-10.9-11.13-10.9-11.13-4.34-8.45,9.24-12.12,9.24-12.12,8.22-7.68,15.45.45,15.45.45,11.24,6.9,1.79,15.68,1.79,15.68Z"/>
      <path class="cls-2" d="M118.99,119.02c-4.01,11.91-15.58,7.12-15.58,7.12-9.12,2.68-10.9-11.13-10.9-11.13-4.34-8.45,9.24-12.12,9.24-12.12,8.22-7.68,15.45.45,15.45.45,11.24,6.9,1.79,15.68,1.79,15.68Z"/>
    </g>
  </g>
</svg>