<?xml version="1.0" encoding="UTF-8"?>
<svg id="Layer_2" data-name="Layer 2" xmlns="http://www.w3.org/2000/svg" viewBox="0 0 624.86 750.92">
  <defs>
    <style>
      .cls-1 {
        fill: #f5f1be;
        stroke: #222;
        stroke-miterlimit: 10;
        stroke-width: 4px;
      }
    </style>
  </defs>
  <g id="Layer_1-2" data-name="Layer 1">
    <path class="cls-1" d="M612.86,716.44c0-5.52,4.48-10,10-10v-12.47c-5.52,0-10-4.48-10-10s4.48-10,10-10v-12.48c-5.52,0-10-4.48-10-10s4.48-10,10-10v-12.47c-5.52,0-10-4.48-10-10s4.48-10,10-10v-12.48c-5.52,0-10-4.48-10-10s4.48-10,10-10v-12.47c-5.52,0-10-4.48-10-10s4.48-10,10-10v-12.48c-5.52,0-10-4.47-10-10s4.48-10,10-10v-12.47c-5.52,0-10-4.48-10-10s4.48-10,10-10v-12.48c-5.52,0-10-4.47-10-9.99s4.48-10.01,10-10.01v-12.47c-5.52,0-10-4.48-10-10s4.48-10,10-10v-12.48c-5.52,0-10-4.47-10-9.99s4.48-10,10-10v-12.48c-5.52,0-10-4.48-10-10s4.48-10,10-10v-12.47c-5.52,0-10-4.48-10-10s4.48-10.01,10-10.01v-12.47c-5.52,0-10-4.48-10-10s4.48-10,10-10v-12.47c-5.52,0-10-4.48-10-10s4.48-10,10-10v-12.48c-5.52,0-10-4.47-10-10s4.48-10,10-10v-12.47c-5.52,0-10-4.48-10-10s4.48-10,10-10v-12.48c-5.52,0-10-4.48-10-10s4.48-10,10-10v-12.47c-5.52,0-10-4.48-10-10s4.48-10,10-10v-12.48c-5.52,0-10-4.47-10-10s4.48-10,10-10v-12.47c-5.52,0-10-4.48-10-10s4.48-10,10-10v-12.48c-5.52,0-10-4.47-10-10s4.48-10,10-10v-12.47c-.65,0-1.31-.07-1.95-.2-.64-.13-1.27-.32-1.88-.57-.6-.25-1.18-.56-1.72-.92-.55-.36-1.06-.78-1.52-1.24s-.88-.97-1.25-1.52c-.35-.54-.66-1.12-.91-1.73-.25-.6-.45-1.23-.57-1.87-.13-.64-.2-1.3-.2-1.95,0,0,0,0,0,0h-12.68s0,0,0,0c0,5.52-4.47,10-10,10s-10-4.48-10-10c0,0,0,0,0,0h-12.67s0,0,0,0c0,5.52-4.48,10-10,10s-10-4.48-10-10c0,0,0,0,0,0h-12.68s0,0,0,0c0,5.52-4.48,10-10,10s-10-4.48-10-10c0,0,0,0,0,0h-12.68s0,0,0,0c0,5.52-4.47,10-10,10s-10-4.48-10-10c0,0,0,0,0,0h-12.67s0,0,0,0c0,5.52-4.48,10-10,10s-10-4.48-10-10c0,0,0,0,0,0h-12.68s0,0,0,0c0,5.52-4.48,10-10,10s-10-4.48-10-10c0,0,0,0,0,0h-12.68s0,0,0,0c0,5.52-4.47,10-10,10s-10-4.48-10-10c0,0,0,0,0,0h-12.67s0,0,0,0c0,5.52-4.48,10-10,10s-10-4.48-10-10c0,0,0,0,0,0h-12.68s0,0,0,0c0,5.52-4.48,10-10,10s-10-4.48-10-10c0,0,0,0,0,0h-12.68s0,0,0,0c0,5.52-4.47,10-10,10s-10-4.48-10-10c0,0,0,0,0,0h-12.67s0,0,0,0c0,5.52-4.48,10-10,10s-10-4.48-10-10c0,0,0,0,0,0h-12.68s0,0,0,0c0,5.52-4.48,10-10,10s-10-4.48-10-10c0,0,0,0,0,0h-12.68s0,0,0,0c0,5.52-4.47,10-10,10s-10-4.48-10-10c0,0,0,0,0,0h-12.67s0,0,0,0c0,5.52-4.48,10-10,10s-10-4.48-10-10c0,0,0,0,0,0h-12.68s0,0,0,0c0,5.52-4.48,10-10,10s-10-4.48-10-10c0,0,0,0,0,0h-12.67s0,0,0,0c0,5.52-4.48,10-10.01,10s-10-4.48-10-10c0,0,0,0,0,0h-12.67s0,0,0,0c0,5.52-4.48,10-10,10s-10-4.48-10-10c0,0,0,0,0,0h-12.68s0,0,0,0c0,5.52-4.48,10-10,10s-10-4.48-10-10c0,0,0,0,0,0h-12.68s0,0,0,0c0,.65-.06,1.31-.19,1.95-.13.64-.32,1.27-.57,1.87-.25.61-.56,1.19-.92,1.73-.37.55-.78,1.06-1.24,1.52-.47.46-.98.88-1.52,1.24-.55.36-1.13.67-1.73.92-.6.25-1.23.44-1.87.57-.65.13-1.3.2-1.96.2v12.47c5.53,0,10,4.48,10,10s-4.47,10-10,10v12.48c5.53,0,10,4.47,10,10s-4.47,10-10,10v12.47c5.53,0,10,4.48,10,10s-4.47,10-10,10v12.48c5.53,0,10,4.47,10,10s-4.47,10-10,10v12.47c5.53,0,10,4.48,10,10s-4.47,10-10,10v12.48c5.53,0,10,4.47,10,10s-4.47,10-10,10v12.47c5.53,0,10,4.48,10,10s-4.47,10-10,10v12.48c5.53,0,10,4.47,10,10s-4.47,10-10,10v12.47c5.53,0,10,4.48,10,10s-4.47,10-10,10v12.48c5.53,0,10,4.47,10,10s-4.47,9.99-10,9.99v12.48c5.53,0,10,4.48,10,10s-4.47,10-10,10v12.47c5.53,0,10,4.48,10,10s-4.47,10.01-10,10.01v12.47c5.53,0,10,4.48,10,10s-4.47,10-10,10v12.47c5.53,0,10,4.48,10,10s-4.47,10-10,10v12.48c5.53,0,10,4.47,10,10s-4.47,10-10,10v12.47c5.53,0,10,4.48,10,10s-4.47,10-10,10v12.48c5.53,0,10,4.48,10,10s-4.47,10-10,10v12.47c5.53,0,10,4.48,10,10s-4.47,10-10,10v12.48c5.53,0,10,4.48,10,10s-4.47,10-10,10v12.47c5.53,0,10,4.48,10,10s-4.47,10-10,10v12.48c5.53,0,10,4.47,10,10s-4.47,10-10,10v12.47c5.53,0,10,4.48,10,10s-4.47,10-10,10v12.48c.66,0,1.31.06,1.96.19.64.13,1.27.32,1.87.57.6.25,1.18.56,1.72.92.55.37,1.06.78,1.52,1.25.47.46.88.97,1.25,1.52.36.54.67,1.12.92,1.72.25.61.44,1.23.57,1.87.13.65.19,1.3.19,1.96h12.68c0-5.52,4.48-10,10-10s10,4.48,10,10h12.68c0-5.52,4.47-10,10-10s10,4.48,10,10h12.68c0-5.52,4.47-10,9.99-10s10,4.48,10,10h12.68c0-5.52,4.48-10,10-10s10,4.48,10,10h12.68c0-5.52,4.47-10,10-10s10,4.48,10,10h12.67c0-5.52,4.48-10,10-10s10,4.48,10,10h12.68c0-5.52,4.48-10,10-10s10,4.48,10,10h12.68c0-5.52,4.47-10,10-10s10,4.48,10,10h12.67c0-5.52,4.48-10,10-10s10,4.48,10,10h12.68c0-5.52,4.48-10,10-10s10,4.48,10,10h12.68c0-5.52,4.47-10,10-10s10,4.48,10,10h12.67c0-5.52,4.48-10,10-10s10,4.48,10,10h12.68c0-5.52,4.48-10,10-10s10,4.48,10,10h12.68c0-5.52,4.47-10,10-10s10,4.48,10,10h12.67c0-5.52,4.48-10,10-10s10,4.48,10,10h12.68c0-5.52,4.48-10,10-10s10,4.48,10,10h12.67c0-5.52,4.48-10,10.01-10s10,4.48,10,10h12.67c0-5.52,4.48-10,10-10s10,4.48,10,10h12.68c0-.66.06-1.31.19-1.96.13-.64.32-1.26.57-1.87.25-.6.56-1.18.92-1.72.37-.55.79-1.06,1.25-1.52.46-.47.97-.88,1.52-1.25.54-.36,1.12-.67,1.72-.92.61-.25,1.24-.44,1.88-.57.64-.13,1.29-.19,1.95-.19v-12.48c-5.52,0-10-4.47-10-10Z"/>
  </g>
</svg>