<?xml version="1.0" encoding="UTF-8"?>
<svg id="Layer_2" data-name="Layer 2" xmlns="http://www.w3.org/2000/svg" viewBox="0 0 1028.99 644.35">
  <defs>
    <style>
      .cls-1 {
        fill: #f5f1be;
        stroke: #222;
        stroke-miterlimit: 10;
        stroke-width: 4px;
      }
    </style>
  </defs>
  <g id="Layer_1-2" data-name="Layer 1">
    <path class="cls-1" d="M3.25,629.76c.41.05.82.11,1.23.19.8.16,1.6.4,2.36.72.77.32,1.5.71,2.19,1.16.34.23.68.48,1,.74.32.26.63.55.92.84.29.29.57.6.84.92.26.32.5.66.73,1,.46.69.85,1.42,1.17,2.19.31.76.56,1.56.72,2.36.08.41.14.82.18,1.23.04.41.06.83.06,1.24h12.66s0,0,0,0c0-6.98,5.67-12.65,12.65-12.65s12.66,5.67,12.66,12.65c0,0,0,0,0,0h12.66s0,0,0,0c0-6.98,5.66-12.65,12.65-12.65s12.65,5.67,12.65,12.65c0,0,0,0,0,0h12.66s0,0,0,0c0-6.98,5.66-12.65,12.65-12.65s12.65,5.67,12.65,12.65c0,0,0,0,0,0h12.66s0,0,0,0c0-6.98,5.67-12.65,12.65-12.65s12.65,5.67,12.65,12.65c0,0,0,0,0,0h12.66s0,0,0,0c0-6.98,5.67-12.65,12.66-12.65s12.65,5.67,12.65,12.65c0,0,0,0,0,0h12.66s0,0,0,0c0-6.98,5.66-12.65,12.65-12.65s12.65,5.67,12.65,12.65c0,0,0,0,0,0h12.66s0,0,0,0c0-6.98,5.66-12.65,12.65-12.65s12.65,5.67,12.65,12.65c0,0,0,0,0,0h12.66s0,0,0,0c0-6.98,5.67-12.65,12.65-12.65s12.65,5.67,12.65,12.65c0,0,0,0,0,0h12.66s0,0,0,0c0-6.98,5.67-12.65,12.66-12.65s12.65,5.67,12.65,12.65c0,0,0,0,0,0h12.66s0,0,0,0c0-6.98,5.66-12.65,12.65-12.65s12.65,5.67,12.65,12.65c0,0,0,0,0,0h12.66s0,0,0,0c0-6.98,5.67-12.65,12.65-12.65s12.65,5.67,12.65,12.65c0,0,0,0,0,0h12.66s0,0,0,0c0-6.98,5.67-12.65,12.65-12.65s12.65,5.67,12.65,12.65c0,0,0,0,0,0h12.66s0,0,0,0c0-6.98,5.67-12.65,12.66-12.65s12.65,5.67,12.65,12.65c0,0,0,0,0,0h12.66s0,0,0,0c0-6.98,5.66-12.65,12.65-12.65s12.65,5.67,12.65,12.65c0,0,0,0,0,0h12.66s0,0,0,0c0-6.98,5.66-12.65,12.65-12.65s12.65,5.67,12.65,12.65c0,0,0,0,0,0h12.66s0,0,0,0c0-6.98,5.67-12.65,12.65-12.65s12.65,5.67,12.65,12.65c0,0,0,0,0,0h12.66s0,0,0,0c0-6.98,5.67-12.65,12.66-12.65s12.65,5.67,12.65,12.65c0,0,0,0,0,0h12.66s0,0,0,0c0-6.98,5.66-12.65,12.65-12.65s12.65,5.67,12.65,12.65c0,0,0,0,0,0h12.66s0,0,0,0c0-6.98,5.66-12.65,12.65-12.65s12.65,5.67,12.65,12.65c0,0,0,0,0,0h12.66s0,0,0,0c0-6.98,5.67-12.65,12.65-12.65s12.65,5.67,12.65,12.65c0,0,0,0,0,0h12.66s0,0,0,0c0-6.98,5.67-12.65,12.66-12.65s12.65,5.67,12.65,12.65c0,0,0,0,0,0h12.66s0,0,0,0c0-6.98,5.66-12.65,12.65-12.65s12.65,5.67,12.65,12.65c0,0,0,0,0,0h12.66s0,0,0,0c0-6.98,5.66-12.65,12.65-12.65s12.65,5.67,12.65,12.65c0,0,0,0,0,0h12.66s0,0,0,0c0-6.98,5.67-12.65,12.65-12.65s12.66,5.67,12.66,12.65c0,0,0,0,0,0h12.65s0,0,0,0c0-6.98,5.67-12.65,12.66-12.65s12.65,5.67,12.65,12.65c0,0,0,0,0,0h12.66s0,0,0,0c0-6.98,5.66-12.65,12.65-12.65s12.65,5.67,12.65,12.65c0,0,0,0,0,0h12.66s0,0,0,0c0-.41.02-.83.06-1.24s.11-.82.19-1.23c.16-.8.4-1.6.72-2.36.32-.77.71-1.5,1.16-2.19.23-.34.48-.68.74-1,.26-.32.54-.63.84-.92.29-.29.6-.58.92-.84.32-.26.66-.51,1-.74.69-.45,1.42-.84,2.18-1.16.77-.31,1.56-.56,2.37-.72.4-.08.82-.14,1.23-.19.41-.04.83-.06,1.24-.06h0v-12.36h0c-6.99,0-12.65-5.67-12.65-12.65s5.66-12.65,12.65-12.65h0v-12.37h0c-6.99,0-12.65-5.66-12.65-12.65s5.66-12.65,12.65-12.65h0v-12.37h0c-6.99,0-12.65-5.66-12.65-12.65s5.66-12.65,12.65-12.65h0v-12.37h0c-6.99,0-12.65-5.66-12.65-12.65s5.66-12.65,12.65-12.65h0v-12.36h0c-6.99,0-12.65-5.67-12.65-12.65s5.66-12.66,12.65-12.66h0v-12.36h0c-6.99,0-12.65-5.67-12.65-12.65s5.66-12.65,12.65-12.65h0v-12.37h0c-6.99,0-12.65-5.66-12.65-12.65s5.66-12.65,12.65-12.65h0v-12.37h0c-6.99,0-12.65-5.66-12.65-12.65s5.66-12.65,12.65-12.65h0v-12.36h0c-6.99,0-12.65-5.67-12.65-12.65s5.66-12.66,12.65-12.66h0v-12.36h0c-6.99,0-12.65-5.67-12.65-12.65s5.66-12.66,12.65-12.66h0v-12.36h0c-6.99,0-12.65-5.66-12.65-12.65s5.66-12.65,12.65-12.65h0v-12.37h0c-6.99,0-12.65-5.66-12.65-12.65s5.66-12.65,12.65-12.65h0v-12.36h0c-6.99,0-12.65-5.67-12.65-12.66s5.66-12.65,12.65-12.65h0v-12.36h0c-6.99,0-12.65-5.67-12.65-12.65s5.66-12.66,12.65-12.66h0v-12.36h0c-6.99,0-12.65-5.66-12.65-12.65s5.66-12.65,12.65-12.65h0v-12.37h0c-6.99,0-12.65-5.66-12.65-12.65s5.66-12.65,12.65-12.65h0v-12.37h0c-.41,0-.83-.02-1.24-.06-.41-.04-.83-.1-1.23-.18-.81-.17-1.6-.41-2.37-.73-.76-.31-1.49-.7-2.18-1.16-.34-.23-.68-.48-1-.74-.32-.26-.63-.54-.92-.83-.3-.29-.58-.6-.84-.92-.26-.32-.51-.66-.74-1-.45-.69-.84-1.42-1.16-2.19-.32-.76-.56-1.56-.72-2.36-.08-.41-.15-.82-.19-1.23-.04-.42-.06-.83-.06-1.25h-12.66c0,6.99-5.66,12.66-12.65,12.66s-12.65-5.67-12.65-12.66h-12.66c0,6.99-5.67,12.66-12.65,12.66s-12.66-5.67-12.66-12.66h-12.65c0,6.99-5.67,12.66-12.66,12.66s-12.65-5.67-12.65-12.66h-12.66c0,6.99-5.66,12.66-12.65,12.66s-12.65-5.67-12.65-12.66h-12.66c0,6.99-5.66,12.66-12.65,12.66s-12.65-5.67-12.65-12.66h-12.66c0,6.99-5.67,12.66-12.65,12.66s-12.66-5.67-12.66-12.66h-12.66c0,6.99-5.66,12.66-12.65,12.66s-12.65-5.67-12.65-12.66h-12.66c0,6.99-5.66,12.66-12.65,12.66s-12.65-5.67-12.65-12.66h-12.66c0,6.99-5.66,12.66-12.65,12.66s-12.65-5.67-12.65-12.66h-12.66c0,6.99-5.67,12.66-12.65,12.66s-12.66-5.67-12.66-12.66h-12.66c0,6.99-5.66,12.66-12.65,12.66s-12.65-5.67-12.65-12.66h-12.66c0,6.99-5.66,12.66-12.65,12.66s-12.65-5.67-12.65-12.66h-12.66c0,6.99-5.66,12.66-12.65,12.66s-12.65-5.67-12.65-12.66h-12.66c0,6.99-5.67,12.66-12.65,12.66s-12.66-5.67-12.66-12.66h-12.66c0,6.99-5.66,12.66-12.65,12.66s-12.65-5.67-12.65-12.66h-12.66c0,6.99-5.66,12.66-12.65,12.66s-12.65-5.67-12.65-12.66h-12.66c0,6.99-5.66,12.66-12.65,12.66s-12.65-5.67-12.65-12.66h-12.66c0,6.99-5.67,12.66-12.65,12.66s-12.66-5.67-12.66-12.66h-12.66c0,6.99-5.66,12.66-12.65,12.66s-12.65-5.67-12.65-12.66h-12.66c0,6.99-5.66,12.66-12.65,12.66s-12.65-5.67-12.65-12.66h-12.66c0,6.99-5.66,12.66-12.65,12.66s-12.65-5.67-12.65-12.66h-12.66c0,6.99-5.67,12.66-12.65,12.66s-12.66-5.67-12.66-12.66h-12.66c0,6.99-5.66,12.66-12.65,12.66s-12.65-5.67-12.65-12.66h-12.66c0,6.99-5.66,12.66-12.65,12.66s-12.65-5.67-12.65-12.66h-12.66c0,6.99-5.66,12.66-12.65,12.66s-12.65-5.67-12.65-12.66h-12.66c0,6.99-5.67,12.66-12.66,12.66s-12.65-5.67-12.65-12.66h-12.65c0,.42-.02.83-.07,1.25-.04.41-.1.82-.18,1.23-.16.8-.41,1.6-.72,2.36-.32.77-.71,1.5-1.17,2.19-.23.34-.47.68-.73,1-.27.32-.55.63-.84.92-.29.29-.6.57-.92.84-.32.26-.66.5-1,.73-.69.46-1.42.85-2.19,1.17-.76.31-1.56.56-2.36.72-.41.08-.82.14-1.23.18-.42.05-.83.07-1.25.07v12.36c6.99,0,12.66,5.66,12.66,12.65s-5.67,12.65-12.66,12.65v12.37c6.99,0,12.66,5.66,12.66,12.65s-5.67,12.65-12.66,12.65v12.37c6.99,0,12.66,5.66,12.66,12.65s-5.67,12.65-12.66,12.65v12.36c6.99,0,12.66,5.67,12.66,12.65s-5.67,12.66-12.66,12.66v12.36c6.99,0,12.66,5.66,12.66,12.65s-5.67,12.65-12.66,12.65v12.37c6.99,0,12.66,5.66,12.66,12.65s-5.67,12.65-12.66,12.65v12.37c6.99,0,12.66,5.66,12.66,12.65s-5.67,12.65-12.66,12.65v12.36c6.99,0,12.66,5.67,12.66,12.65s-5.67,12.66-12.66,12.66v12.36c6.99,0,12.66,5.67,12.66,12.65s-5.67,12.65-12.66,12.65v12.37c6.99,0,12.66,5.66,12.66,12.65s-5.67,12.65-12.66,12.65v12.37c6.99,0,12.66,5.66,12.66,12.65s-5.67,12.65-12.66,12.65v12.36c6.99,0,12.66,5.67,12.66,12.66s-5.67,12.65-12.66,12.65v12.36c6.99,0,12.66,5.67,12.66,12.65s-5.67,12.66-12.66,12.66v12.36c6.99,0,12.66,5.66,12.66,12.65s-5.67,12.65-12.66,12.65v12.37c6.99,0,12.66,5.66,12.66,12.65s-5.67,12.65-12.66,12.65v12.37c6.99,0,12.66,5.66,12.66,12.65s-5.67,12.65-12.66,12.65v12.36c.42,0,.83.02,1.25.06Z"/>
  </g>
</svg>