<?xml version="1.0" encoding="UTF-8"?>
<svg id="Layer_2" data-name="Layer 2" xmlns="http://www.w3.org/2000/svg" viewBox="0 0 1207 607">
  <defs>
    <style>
      .cls-1 {
        fill: #f5f1be;
        stroke: #222;
        stroke-miterlimit: 10;
        stroke-width: 6px;
      }
    </style>
  </defs>
  <g id="Layer_1-2" data-name="Layer 1">
    <path class="cls-1" d="M1194,563.93c0-5.52,4.47-10,10-10v-20.07c-5.53,0-10-4.48-10-10s4.47-10,10-10v-20.06c-5.53,0-10-4.48-10-10s4.47-10,10-10v-20.07c-5.53,0-10-4.48-10-10s4.47-10,10-10v-20.07c-5.53,0-10-4.47-10-10s4.47-10,10-10v-20.06c-5.53,0-10-4.48-10-10s4.47-10,10-10v-20.07c-5.53,0-10-4.48-10-10s4.47-10,10-10v-20.07c-5.53,0-10-4.47-10-10s4.47-10,10-10v-20.06c-5.53,0-10-4.48-10-10s4.47-10,10-10v-20.07c-5.53,0-10-4.48-10-10s4.47-10,10-10v-20.07c-5.53,0-10-4.47-10-10s4.47-10,10-10v-20.06c-5.53,0-10-4.48-10-10s4.47-10,10-10v-20.07c-5.53,0-10-4.48-10-10s4.47-10,10-10v-20.07c-5.53,0-10-4.47-10-10s4.47-10,10-10V13c-.66,0-1.31-.07-1.96-.2-.64-.13-1.27-.32-1.87-.57-.6-.25-1.18-.56-1.73-.92-.54-.36-1.06-.78-1.52-1.24-1.86-1.87-2.92-4.44-2.92-7.07,0,0,0,0,0,0h-20.04s0,0,0,0c0,5.52-4.47,10-10,10s-10-4.48-10-10c0,0,0,0,0,0h-20.03s0,0,0,0c0,5.52-4.48,10-10,10s-10-4.48-10-10c0,0,0,0,0,0h-20.03s0,0,0,0c0,5.52-4.48,10-10,10s-10-4.48-10-10c0,0,0,0,0,0h-20.04s0,0,0,0c0,5.52-4.47,10-10,10s-10-4.48-10-10c0,0,0,0,0,0h-20.03s0,0,0,0c0,5.52-4.48,10-10,10s-10-4.48-10-10c0,0,0,0,0,0h-20.03s0,0,0,0c0,5.52-4.48,10-10,10s-10-4.48-10-10c0,0,0,0,0,0h-20.04s0,0,0,0c0,5.52-4.47,10-10,10s-10-4.48-10-10c0,0,0,0,0,0h-20.03s0,0,0,0c0,5.52-4.48,10-10,10s-10-4.48-10-10c0,0,0,0,0,0h-20.03s0,0,0,0c0,5.52-4.48,10-10,10s-10-4.48-10-10c0,0,0,0,0,0h-20.04s0,0,0,0c0,5.52-4.47,10-10,10s-10-4.48-10-10c0,0,0,0,0,0h-20.03s0,0,0,0c0,5.52-4.48,10-10,10s-10-4.48-10-10c0,0,0,0,0,0h-20.03s0,0,0,0c0,5.52-4.48,10-10,10s-10-4.48-10-10c0,0,0,0,0,0h-20.04s0,0,0,0c0,5.52-4.48,10-10,10s-10-4.48-10-10c0,0,0,0,0,0h-20.03s0,0,0,0c0,5.52-4.48,10-10,10s-10-4.48-10-10c0,0,0,0,0,0h-20.03s0,0,0,0c0,5.52-4.48,10-10,10s-10-4.48-10-10c0,0,0,0,0,0h-20.04s0,0,0,0c0,5.52-4.47,10-10,10s-10-4.48-10-10c0,0,0,0,0,0h-20.03s0,0,0,0c0,5.52-4.48,10-10,10s-10-4.48-10-10c0,0,0,0,0,0h-20.03s0,0,0,0c0,5.52-4.48,10-10,10s-10-4.48-10-10c0,0,0,0,0,0h-20.04s0,0,0,0c0,5.52-4.47,10-10,10s-10-4.48-10-10c0,0,0,0,0,0h-20.03s0,0,0,0c0,5.52-4.48,10-10,10s-10-4.48-10-10c0,0,0,0,0,0h-20.03s0,0,0,0c0,5.52-4.48,10-10,10s-10-4.48-10-10c0,0,0,0,0,0h-20.04s0,0,0,0c0,5.52-4.47,10-10,10s-10-4.48-10-10c0,0,0,0,0,0h-20.03s0,0,0,0c0,5.52-4.48,10-10,10s-10-4.48-10-10c0,0,0,0,0,0h-20.03s0,0,0,0c0,5.52-4.48,10-10,10s-10-4.48-10-10c0,0,0,0,0,0h-20.04s0,0,0,0c0,5.52-4.47,10-10,10s-10-4.48-10-10c0,0,0,0,0,0h-20.03s0,0,0,0c0,5.52-4.48,10-10,10s-10-4.48-10-10c0,0,0,0,0,0h-20.03s0,0,0,0c0,5.52-4.48,10-10,10s-10-4.48-10-10c0,0,0,0,0,0h-20.04s0,0,0,0c0,5.52-4.47,10-10,10s-10-4.48-10-10c0,0,0,0,0,0h-20.03s0,0,0,0c0,5.52-4.48,10-10,10s-10-4.48-10-10c0,0,0,0,0,0H13s0,0,0,0c0,.65-.07,1.31-.2,1.95-.13.64-.32,1.27-.57,1.87-.25.61-.56,1.19-.92,1.73-.36.55-.78,1.06-1.24,1.52-1.86,1.86-4.44,2.93-7.07,2.93h0v20.06h0c5.52,0,10,4.48,10,10s-4.48,10-10,10h0v20.07h0c5.52,0,10,4.48,10,10s-4.48,10-10,10h0v20.07h0c5.52,0,10,4.47,10,10s-4.48,10-10,10h0v20.07h0c5.52,0,10,4.47,10,10s-4.48,10-10,10h0v20.06h0c5.52,0,10,4.48,10,10s-4.48,10-10,10h0v20.07h0c5.52,0,10,4.48,10,10s-4.48,10-10,10h0v20.06h0c5.52,0,10,4.48,10,10s-4.48,10-10,10h0v20.07h0c5.52,0,10,4.48,10,10s-4.48,10-10,10h0v20.07h0c5.52,0,10,4.47,10,10s-4.48,10-10,10h0v20.06h0c5.52,0,10,4.48,10,10s-4.48,10-10,10h0v20.07h0c5.52,0,10,4.48,10,10s-4.48,10-10,10h0v20.07h0c5.52,0,10,4.48,10,10s-4.48,10-10,10h0v20.07h0c5.52,0,10,4.47,10,10s-4.48,10-10,10h0v20.06h0c5.52,0,10,4.48,10,10s-4.48,10-10,10h0v20.06c.65,0,1.31.06,1.95.19.64.13,1.27.32,1.87.57.61.25,1.19.56,1.73.92.55.37,1.06.78,1.52,1.25,1.86,1.86,2.93,4.43,2.93,7.07h20.03c0-5.53,4.48-10,10-10s10,4.47,10,10h20.03c0-5.53,4.48-10,10-10s10,4.47,10,10h20.04c0-5.53,4.47-10,10-10s10,4.47,10,10h20.03c0-5.53,4.48-10,10-10s10,4.47,10,10h20.03c0-5.53,4.48-10,10-10s10,4.47,10,10h20.04c0-5.53,4.47-10,10-10s10,4.47,10,10h20.03c0-5.53,4.48-10,10-10s10,4.47,10,10h20.03c0-5.53,4.48-10,10-10s10,4.47,10,10h20.04c0-5.53,4.47-10,10-10s10,4.47,10,10h20.03c0-5.53,4.48-10,10-10s10,4.47,10,10h20.03c0-5.53,4.48-10,10-10s10,4.47,10,10h20.04c0-5.53,4.47-10,10-10s10,4.47,10,10h20.03c0-5.53,4.48-10,10-10s10,4.47,10,10h20.03c0-5.53,4.48-10,10-10s10,4.47,10,10h20.04c0-5.53,4.47-10,10-10s10,4.47,10,10h20.03c0-5.53,4.48-10,10-10s10,4.47,10,10h20.03c0-5.53,4.48-10,10-10s10,4.47,10,10h20.04c0-5.53,4.47-10,9.99-10s10.01,4.47,10.01,10h20.03c0-5.53,4.48-10,10-10s10,4.47,10,10h20.03c0-5.53,4.48-10,10-10s10,4.47,10,10h20.03c0-5.53,4.48-10,10.01-10s10,4.47,10,10h20.03c0-5.53,4.48-10,10-10s10,4.47,10,10h20.03c0-5.53,4.48-10,10-10s10,4.47,10,10h20.04c0-5.53,4.47-10,10-10s10,4.47,10,10h20.03c0-5.53,4.48-10,10-10s10,4.47,10,10h20.03c0-5.53,4.48-10,10-10s10,4.47,10,10h20.04c0-5.53,4.47-10,10-10s10,4.47,10,10h20.03c0-5.53,4.48-10,10-10s10,4.47,10,10h20.03c0-5.53,4.48-10,10-10s10,4.47,10,10h20.04c0-.65.06-1.31.19-1.96.13-.63.32-1.26.57-1.87.25-.6.56-1.18.92-1.72.37-.55.78-1.06,1.24-1.52,1.86-1.87,4.44-2.93,7.07-2.93,0,0,0,0,0,0v-20.07c-5.53,0-10-4.48-10-10Z"/>
  </g>
</svg>