<?xml version="1.0" encoding="UTF-8"?>
<svg id="Layer_2" data-name="Layer 2" xmlns="http://www.w3.org/2000/svg" viewBox="0 0 750.92 624.86">
  <defs>
    <style>
      .cls-1 {
        fill: #f5f1be;
        stroke: #222;
        stroke-miterlimit: 10;
        stroke-width: 4px;
      }
    </style>
  </defs>
  <g id="Layer_1-2" data-name="Layer 1">
    <path class="cls-1" d="M34.48,612.86c5.52,0,10,4.48,10,10h12.47c0-5.52,4.48-10,10-10s10,4.48,10,10h12.48c0-5.52,4.48-10,10-10s10,4.48,10,10h12.47c0-5.52,4.48-10,10-10s10,4.48,10,10h12.48c0-5.52,4.48-10,10-10s10,4.48,10,10h12.47c0-5.52,4.48-10,10-10s10,4.48,10,10h12.48c0-5.52,4.47-10,10-10s10,4.48,10,10h12.47c0-5.52,4.48-10,10-10s10,4.48,10,10h12.48c0-5.52,4.47-10,9.99-10s10.01,4.48,10.01,10h12.47c0-5.52,4.48-10,10-10s10,4.48,10,10h12.48c0-5.52,4.47-10,9.99-10s10,4.48,10,10h12.48c0-5.52,4.48-10,10-10s10,4.48,10,10h12.47c0-5.52,4.48-10,10-10s10.01,4.48,10.01,10h12.47c0-5.52,4.48-10,10-10s10,4.48,10,10h12.47c0-5.52,4.48-10,10-10s10,4.48,10,10h12.48c0-5.52,4.47-10,10-10s10,4.48,10,10h12.47c0-5.52,4.48-10,10-10s10,4.48,10,10h12.48c0-5.52,4.48-10,10-10s10,4.48,10,10h12.47c0-5.52,4.48-10,10-10s10,4.48,10,10h12.48c0-5.52,4.47-10,10-10s10,4.48,10,10h12.47c0-5.52,4.48-10,10-10s10,4.48,10,10h12.48c0-5.52,4.47-10,10-10s10,4.48,10,10h12.47c0-.65.07-1.31.2-1.95.13-.64.32-1.27.57-1.88.25-.6.56-1.18.92-1.72.36-.55.78-1.06,1.24-1.52s.97-.88,1.52-1.25c.54-.35,1.12-.66,1.73-.91.6-.25,1.23-.45,1.87-.57.64-.13,1.3-.2,1.95-.2,0,0,0,0,0,0v-12.68s0,0,0,0c-5.52,0-10-4.47-10-10s4.48-10,10-10c0,0,0,0,0,0v-12.67s0,0,0,0c-5.52,0-10-4.48-10-10s4.48-10,10-10c0,0,0,0,0,0v-12.68s0,0,0,0c-5.52,0-10-4.48-10-10s4.48-10,10-10c0,0,0,0,0,0v-12.68s0,0,0,0c-5.52,0-10-4.47-10-10s4.48-10,10-10c0,0,0,0,0,0v-12.67s0,0,0,0c-5.52,0-10-4.48-10-10s4.48-10,10-10c0,0,0,0,0,0v-12.68s0,0,0,0c-5.52,0-10-4.48-10-10s4.48-10,10-10c0,0,0,0,0,0v-12.68s0,0,0,0c-5.52,0-10-4.47-10-10s4.48-10,10-10c0,0,0,0,0,0v-12.67s0,0,0,0c-5.52,0-10-4.48-10-10s4.48-10,10-10c0,0,0,0,0,0v-12.68s0,0,0,0c-5.52,0-10-4.48-10-10s4.48-10,10-10c0,0,0,0,0,0v-12.68s0,0,0,0c-5.52,0-10-4.47-10-10s4.48-10,10-10c0,0,0,0,0,0v-12.67s0,0,0,0c-5.52,0-10-4.48-10-10s4.48-10,10-10c0,0,0,0,0,0v-12.68s0,0,0,0c-5.52,0-10-4.48-10-10s4.48-10,10-10c0,0,0,0,0,0v-12.68s0,0,0,0c-5.52,0-10-4.47-10-10s4.48-10,10-10c0,0,0,0,0,0v-12.67s0,0,0,0c-5.52,0-10-4.48-10-10s4.48-10,10-10c0,0,0,0,0,0v-12.68s0,0,0,0c-5.52,0-10-4.48-10-10s4.48-10,10-10c0,0,0,0,0,0v-12.67s0,0,0,0c-5.52,0-10-4.48-10-10.01s4.48-10,10-10c0,0,0,0,0,0v-12.67s0,0,0,0c-5.52,0-10-4.48-10-10s4.48-10,10-10c0,0,0,0,0,0v-12.68s0,0,0,0c-5.52,0-10-4.48-10-10s4.48-10,10-10c0,0,0,0,0,0v-12.68s0,0,0,0c-.65,0-1.31-.06-1.95-.19-.64-.13-1.27-.32-1.87-.57-.61-.25-1.19-.56-1.73-.92-.55-.37-1.06-.78-1.52-1.24-.46-.47-.88-.98-1.24-1.52-.36-.55-.67-1.13-.92-1.73-.25-.6-.44-1.23-.57-1.87-.13-.65-.2-1.3-.2-1.96h-12.47c0,5.53-4.48,10-10,10s-10-4.47-10-10h-12.48c0,5.53-4.47,10-10,10s-10-4.47-10-10h-12.47c0,5.53-4.48,10-10,10s-10-4.47-10-10h-12.48c0,5.53-4.47,10-10,10s-10-4.47-10-10h-12.47c0,5.53-4.48,10-10,10s-10-4.47-10-10h-12.48c0,5.53-4.47,10-10,10s-10-4.47-10-10h-12.47c0,5.53-4.48,10-10,10s-10-4.47-10-10h-12.48c0,5.53-4.47,10-10,10s-10-4.47-10-10h-12.47c0,5.53-4.48,10-10,10s-10-4.47-10-10h-12.48c0,5.53-4.47,10-10,10s-9.99-4.47-9.99-10h-12.48c0,5.53-4.48,10-10,10s-10-4.47-10-10h-12.47c0,5.53-4.48,10-10,10s-10.01-4.47-10.01-10h-12.47c0,5.53-4.48,10-10,10s-10-4.47-10-10h-12.47c0,5.53-4.48,10-10,10s-10-4.47-10-10h-12.48c0,5.53-4.47,10-10,10s-10-4.47-10-10h-12.47c0,5.53-4.48,10-10,10s-10-4.47-10-10h-12.48c0,5.53-4.48,10-10,10s-10-4.47-10-10h-12.47c0,5.53-4.48,10-10,10s-10-4.47-10-10h-12.48c0,5.53-4.48,10-10,10s-10-4.47-10-10h-12.47c0,5.53-4.48,10-10,10s-10-4.47-10-10h-12.48c0,5.53-4.47,10-10,10s-10-4.47-10-10h-12.47c0,5.53-4.48,10-10,10s-10-4.47-10-10h-12.48c0,.66-.06,1.31-.19,1.96-.13.64-.32,1.27-.57,1.87-.25.6-.56,1.18-.92,1.72-.37.55-.78,1.06-1.25,1.52-.46.47-.97.88-1.52,1.25-.54.36-1.12.67-1.72.92-.61.25-1.23.44-1.87.57-.65.13-1.3.19-1.96.19v12.68c5.52,0,10,4.48,10,10s-4.48,10-10,10v12.68c5.52,0,10,4.47,10,10s-4.48,10-10,10v12.68c5.52,0,10,4.47,10,9.99s-4.48,10-10,10v12.68c5.52,0,10,4.48,10,10s-4.48,10-10,10v12.68c5.52,0,10,4.47,10,10s-4.48,10-10,10v12.67c5.52,0,10,4.48,10,10s-4.48,10-10,10v12.68c5.52,0,10,4.48,10,10s-4.48,10-10,10v12.68c5.52,0,10,4.47,10,10s-4.48,10-10,10v12.67c5.52,0,10,4.48,10,10s-4.48,10-10,10v12.68c5.52,0,10,4.48,10,10s-4.48,10-10,10v12.68c5.52,0,10,4.47,10,10s-4.48,10-10,10v12.67c5.52,0,10,4.48,10,10s-4.48,10-10,10v12.68c5.52,0,10,4.48,10,10s-4.48,10-10,10v12.68c5.52,0,10,4.47,10,10s-4.48,10-10,10v12.67c5.52,0,10,4.48,10,10s-4.48,10-10,10v12.68c5.52,0,10,4.48,10,10s-4.48,10-10,10v12.67c5.52,0,10,4.48,10,10.01s-4.48,10-10,10v12.67c5.52,0,10,4.48,10,10s-4.48,10-10,10v12.68c.66,0,1.31.06,1.96.19.64.13,1.26.32,1.87.57.6.25,1.18.56,1.72.92.55.37,1.06.79,1.52,1.25.47.46.88.97,1.25,1.52.36.54.67,1.12.92,1.72.25.61.44,1.24.57,1.88.13.64.19,1.29.19,1.95h12.48c0-5.52,4.47-10,10-10Z"/>
  </g>
</svg>