<?xml version="1.0" encoding="UTF-8"?>
<svg id="Layer_2" data-name="Layer 2" xmlns="http://www.w3.org/2000/svg" viewBox="0 0 1431.68 644.35">
  <defs>
    <style>
      .cls-1 {
        fill: #f5f1be;
        stroke: #222;
        stroke-miterlimit: 10;
        stroke-width: 4px;
      }
    </style>
  </defs>
  <g id="Layer_1-2" data-name="Layer 1">
    <path class="cls-1" d="M1419.68,606.78c0-5.53,4.48-10,10-10v-15.58c-5.52,0-10-4.47-10-10s4.48-10,10-10v-15.57c-5.52,0-10-4.48-10-10s4.48-10,10-10v-15.58c-5.52,0-10-4.47-10-10s4.48-10,10-10v-15.57c-5.52,0-10-4.48-10-10s4.48-10,10-10v-15.58c-5.52,0-10-4.47-10-10s4.48-10,10-10v-15.57c-5.52,0-10-4.48-10-10s4.48-10,10-10v-15.58c-5.52,0-10-4.48-10-10s4.48-10,10-10v-15.57c-5.52,0-10-4.48-10-10s4.48-10,10-10v-15.58c-5.52,0-10-4.47-10-10s4.48-10,10-10v-15.57c-5.52,0-10-4.48-10-10s4.48-10,10-10v-15.58c-5.52,0-10-4.47-10-10s4.48-10,10-10v-15.57c-5.52,0-10-4.48-10-10s4.48-10,10-10v-15.58c-5.52,0-10-4.47-10-10s4.48-10,10-10v-15.57c-5.52,0-10-4.48-10-10s4.48-10,10-10v-15.58c-5.52,0-10-4.47-10-10s4.48-10,10-10v-15.57c-5.52,0-10-4.48-10-10s4.48-10,10-10v-15.58c-.65,0-1.31-.06-1.96-.19-.63-.13-1.26-.32-1.87-.57-.6-.25-1.18-.56-1.72-.92-.55-.37-1.06-.79-1.52-1.25s-.88-.97-1.25-1.52c-.36-.54-.67-1.12-.92-1.72-.25-.61-.44-1.24-.57-1.87-.13-.65-.19-1.31-.19-1.96h-15.69c0,5.53-4.48,10-10,10s-10-4.47-10-10h-15.7c0,5.53-4.47,10-9.99,10s-10-4.47-10-10h-15.7c0,5.53-4.47,10-10,10s-10-4.47-10-10h-15.69c0,5.53-4.48,10-10,10s-10-4.47-10-10h-15.69c0,5.53-4.48,10-10,10s-10-4.47-10-10h-15.69c0,5.53-4.48,10-10,10s-10-4.47-10-10h-15.69c0,5.53-4.48,10-10,10s-10-4.47-10-10h-15.7c0,5.53-4.47,10-10,10s-10-4.47-10-10h-15.69c0,5.53-4.47,10-10,10s-10-4.47-10-10h-15.69c0,5.53-4.48,10-10,10s-10-4.47-10-10h-15.69c0,5.53-4.48,10-10,10s-10-4.47-10-10h-15.69c0,5.53-4.48,10-10,10s-10-4.47-10-10h-15.7c0,5.53-4.47,10-10,10s-10-4.47-10-10h-15.69c0,5.53-4.47,10-10,10s-10-4.47-10-10h-15.69c0,5.53-4.48,10-10,10s-10-4.47-10-10h-15.69c0,5.53-4.48,10-10,10s-10-4.47-10-10h-15.69c0,5.53-4.48,10-10,10s-10-4.47-10-10h-15.7c0,5.53-4.47,10-9.99,10s-10.01-4.47-10.01-10h-15.69c0,5.53-4.47,10-10,10s-10-4.47-10-10h-15.69c0,5.53-4.47,10-10,10s-10-4.47-10-10h-15.69c0,5.53-4.48,10-10,10s-10-4.47-10-10h-15.69c0,5.53-4.48,10-10,10s-10-4.47-10-10h-15.69c0,5.53-4.48,10-10,10s-10-4.47-10-10h-15.7c0,5.53-4.47,10-10,10s-10-4.47-10-10h-15.69c0,5.53-4.47,10-10,10s-10-4.47-10-10h-15.69c0,5.53-4.48,10-10,10s-10-4.47-10-10h-15.69c0,5.53-4.48,10-10,10s-10-4.47-10-10h-15.69c0,5.53-4.48,10-10,10s-10-4.47-10-10h-15.7c0,5.53-4.47,10-10,10s-10-4.47-10-10h-15.69c0,5.53-4.47,10-10,10s-10-4.47-10-10h-15.69c0,5.53-4.48,10-10,10s-10-4.47-10-10h-15.69c0,5.53-4.48,10-10,10s-10-4.47-10-10h-15.69c0,5.53-4.48,10-10,10s-10-4.47-10-10h-15.69c0,5.53-4.48,10-10,10s-10.01-4.47-10.01-10h-15.69c0,5.53-4.47,10-10,10s-10-4.47-10-10h-15.69c0,5.53-4.48,10-10,10s-10-4.47-10-10h-15.69c0,5.53-4.48,10-10,10s-10-4.47-10-10h-15.69c0,5.53-4.48,10-10,10s-10-4.47-10-10h-15.69c0,5.53-4.48,10-10,10s-10.01-4.47-10.01-10h-15.69c0,2.63-1.06,5.21-2.92,7.07-.47.46-.98.88-1.53,1.25-.54.36-1.12.67-1.72.92-.61.25-1.23.44-1.87.57-.65.13-1.3.19-1.96.19v15.58c5.53,0,10,4.47,10,10s-4.47,10-10,10v15.57c5.53,0,10,4.48,10,10s-4.47,10-10,10v15.58c5.53,0,10,4.48,10,10s-4.47,10-10,10v15.57c5.53,0,10,4.48,10,10s-4.47,10-10,10v15.58c5.53,0,10,4.47,10,10s-4.47,10-10,10v15.57c5.53,0,10,4.48,10,10s-4.47,10-10,10v15.58c5.53,0,10,4.47,10,10s-4.47,10-10,10v15.57c5.53,0,10,4.48,10,10s-4.47,10-10,10v15.58c5.53,0,10,4.48,10,10s-4.47,10-10,10v15.57c5.53,0,10,4.48,10,10s-4.47,10-10,10v15.58c5.53,0,10,4.47,10,10s-4.47,10-10,10v15.57c5.53,0,10,4.48,10,10s-4.47,10-10,10v15.58c5.53,0,10,4.48,10,10s-4.47,10-10,10v15.57c5.53,0,10,4.48,10,10s-4.47,10-10,10v15.58c5.53,0,10,4.48,10,10s-4.47,10-10,10v15.57c5.53,0,10,4.48,10,10s-4.47,10-10,10v15.58c5.53,0,10,4.48,10,10s-4.47,10-10,10v15.58c.66,0,1.31.06,1.96.19.64.13,1.26.32,1.87.57.6.25,1.18.56,1.72.92.55.36,1.06.78,1.53,1.24,1.86,1.86,2.92,4.44,2.92,7.07,0,0,0,0,0,0h15.7s0,0,0,0c0-5.52,4.47-10,10-10s9.99,4.48,9.99,10c0,0,0,0,0,0h15.7s0,0,0,0c0-5.52,4.47-10,10-10s10,4.48,10,10c0,0,0,0,0,0h15.69s0,0,0,0c0-5.52,4.48-10,10-10s10,4.48,10,10c0,0,0,0,0,0h15.69s0,0,0,0c0-5.52,4.48-10,10-10s10,4.48,10,10c0,0,0,0,0,0h15.69s0,0,0,0c0-5.52,4.48-10,10-10s10,4.48,10,10c0,0,0,0,0,0h15.69s0,0,0,0c0-5.52,4.48-10,10-10s10,4.48,10,10c0,0,0,0,0,0h15.7s0,0,0,0c0-5.52,4.47-10,10-10s10,4.48,10,10c0,0,0,0,0,0h15.69s0,0,0,0c0-5.52,4.48-10,10-10s10,4.48,10,10c0,0,0,0,0,0h15.69s0,0,0,0c0-5.52,4.48-10,10-10s10,4.48,10,10c0,0,0,0,0,0h15.69s0,0,0,0c0-5.52,4.48-10,10-10s10,4.48,10,10c0,0,0,0,0,0h15.69s0,0,0,0c0-5.52,4.48-10,10-10s10,4.48,10,10c0,0,0,0,0,0h15.7s0,0,0,0c0-5.52,4.47-10,10-10s10,4.48,10,10c0,0,0,0,0,0h15.69s0,0,0,0c0-5.52,4.47-10,10-10s10,4.48,10,10c0,0,0,0,0,0h15.69s0,0,0,0c0-5.52,4.48-10,10-10s10,4.48,10,10c0,0,0,0,0,0h15.69s0,0,0,0c0-5.52,4.48-10,10-10s10,4.48,10,10c0,0,0,0,0,0h15.69s0,0,0,0c0-5.52,4.48-10,10-10s10,4.48,10,10c0,0,0,0,0,0h15.7s0,0,0,0c0-5.52,4.47-10,10-10s9.99,4.48,9.99,10c0,0,0,0,0,0h15.7s0,0,0,0c0-5.52,4.47-10,10-10s10,4.48,10,10c0,0,0,0,0,0h15.69s0,0,0,0c0-5.52,4.48-10,10-10s10,4.48,10,10c0,0,0,0,0,0h15.69s0,0,0,0c0-5.52,4.48-10,10-10s10,4.48,10,10c0,0,0,0,0,0h15.69s0,0,0,0c0-5.52,4.48-10,10-10s10,4.48,10,10c0,0,0,0,0,0h15.69s0,0,0,0c0-5.52,4.48-10,10-10s10,4.48,10,10c0,0,0,0,0,0h15.7s0,0,0,0c0-5.52,4.47-10,10-10s10,4.48,10,10c0,0,0,0,0,0h15.69s0,0,0,0c0-5.52,4.48-10,10-10s10,4.48,10,10c0,0,0,0,0,0h15.69s0,0,0,0c0-5.52,4.48-10,10-10s10,4.48,10,10c0,0,0,0,0,0h15.69s0,0,0,0c0-5.52,4.48-10,10-10s10,4.48,10,10c0,0,0,0,0,0h15.69s0,0,0,0c0-5.52,4.48-10,10-10s10,4.48,10,10c0,0,0,0,0,0h15.7s0,0,0,0c0-5.52,4.47-10,10-10s10,4.48,10,10c0,0,0,0,0,0h15.69s0,0,0,0c0-5.52,4.47-10,10-10s10,4.48,10,10c0,0,0,0,0,0h15.69s0,0,0,0c0-5.52,4.48-10,10-10s10,4.48,10,10c0,0,0,0,0,0h15.69s0,0,0,0c0-5.52,4.48-10,10-10s10,4.48,10,10c0,0,0,0,0,0h15.69s0,0,0,0c0-5.52,4.48-10,10-10s10,4.48,10,10c0,0,0,0,0,0h15.7s0,0,0,0c0-5.52,4.47-10,9.99-10s10.01,4.48,10.01,10c0,0,0,0,0,0h15.69s0,0,0,0c0-5.52,4.47-10,10-10s10,4.48,10,10c0,0,0,0,0,0h15.69s0,0,0,0c0-5.52,4.48-10,10-10s10,4.48,10,10c0,0,0,0,0,0h15.69s0,0,0,0c0-5.52,4.48-10,10-10s10,4.48,10,10c0,0,0,0,0,0h15.69s0,0,0,0c0-5.52,4.48-10,10-10s10,4.48,10,10c0,0,0,0,0,0h15.69s0,0,0,0c0-5.52,4.48-10,10-10s10,4.48,10,10c0,0,0,0,0,0h15.7s0,0,0,0c0-5.52,4.47-10,10-10s10,4.48,10,10c0,0,0,0,0,0h15.69s0,0,0,0c0-.65.06-1.31.19-1.95.13-.64.32-1.27.57-1.87s.56-1.19.92-1.73c.37-.55.79-1.06,1.25-1.52s.97-.88,1.52-1.24c.54-.36,1.12-.67,1.72-.92.61-.25,1.24-.44,1.87-.57.65-.13,1.3-.17,1.96-.17v-15.6c-5.52,0-10-4.48-10-10Z"/>
  </g>
</svg>