<?xml version="1.0" encoding="UTF-8"?>
<svg id="Layer_2" data-name="Layer 2" xmlns="http://www.w3.org/2000/svg" xmlns:xlink="http://www.w3.org/1999/xlink" viewBox="0 0 1389.91 283.26">
  <defs>
    <style>
      .cls-1 {
        fill: none;
      }

      .cls-2 {
        clip-path: url(#clippath-1);
      }

      .cls-3 {
        fill: #222;
      }

      .cls-4 {
        clip-path: url(#clippath);
      }
    </style>
    <clipPath id="clippath">
      <rect class="cls-1" width="1389.91" height="283.26"/>
    </clipPath>
    <clipPath id="clippath-1">
      <rect class="cls-1" width="1389.91" height="283.26"/>
    </clipPath>
  </defs>
  <g id="Layer_1-2" data-name="Layer 1">
    <g id="Artwork_2" data-name="Artwork 2">
      <g class="cls-4">
        <g class="cls-2">
          <path class="cls-3" d="M207.97,142.37c0-12.15,2.26-23.55,6.39-33.82-1-11.95-1.86-23.12-2.92-37.68-.78-11.79.86-15.06,11.31-20.92,13.95-8.09,8.77-30.27-9.91-30.81-2.04-.08-4.1-.12-6.33-.12-3.32,0-7.03.08-11.73.28-1.28.06-2.64.12-4.08.18-.96.04-1.96.08-3,.14-10.45.54-17.46,4.28-22.06,15.78-9.85,24.89-18.56,46.35-28.29,69.91-1.8,4.3-3.62,8.71-5.49,13.23-.56,1.38-1.16,2.66-1.76,3.8-.4.76-.82,1.46-1.24,2.12-.2.32-.42.64-.62.94-.42.6-.86,1.14-1.3,1.62-.42.5-.86.92-1.32,1.28-.66.56-1.34.98-2.02,1.26s-1.36.42-2.06.42c-.94,0-1.9-.26-2.84-.82-.34-.2-.7-.44-1.04-.72-.64-.52-1.28-1.18-1.92-1.98-.34-.42-.68-.9-1-1.4-1.14-1.7-2.24-3.84-3.3-6.47-12.19-30.33-22.9-56.92-32.88-84.25-3.62-9.91-10.75-14.26-22.78-14.74-2-.08-3.76-.14-5.39-.2-.8-.04-1.58-.06-2.36-.1-1.18-.04-2.32-.08-3.52-.12-.78-.02-1.56-.04-2.4-.06-.84-.02-1.72-.04-2.66-.04-2.08-.02-4.44-.04-7.29-.02-20.12.12-24.85,21.98-12.09,29.97,10.03,6.05,12.93,12.03,11.49,30.45-.5,6.17-1.16,13.79-1.82,22-1.44,16.74-3.14,35.96-4.46,50.71-1.94,21.82-4.54,26.23-16.44,32.09-15.3,7.73-9.19,30.51,7.19,31.05,6.33.22,13.75.32,21.16.32,9.01,0,17.96-.14,24.77-.38,18.74-.54,22.42-25.01,6.53-31.95-8.09-3.26-9.79-5.69-8.95-18.08.66-9.25,1.4-17.84,2.36-26.83.22-2.18.82-3.86,1.62-5.01.2-.3.42-.54.64-.76.68-.64,1.44-.98,2.24-.98,1.64,0,3.38,1.42,4.62,4.44,9.49,23.38,16.56,42.79,27.37,69.43.42,1.04.9,2,1.42,2.9.8,1.36,1.7,2.58,2.68,3.64.34.36.66.7,1.02,1.02.7.66,1.44,1.24,2.2,1.76.76.52,1.54.98,2.36,1.36,2.44,1.18,5.07,1.76,7.69,1.76,6.89,0,13.75-4.02,17.14-12.13,7.85-18.92,15.96-37.54,23.69-56.1l5.09-12.39c.08-.2.16-.4.26-.58.14-.3.28-.6.46-.86.5-.88,1.1-1.58,1.72-2.1.22-.18.46-.36.7-.5h.02c.24-.14.48-.26.72-.34.24-.1.48-.16.72-.22.24-.04.5-.06.74-.06,2.24,0,4.26,1.94,4.62,5.35,1.08,10.75,1.44,15.16,2.36,26.83.96,12.21-1.28,14.98-10.47,18.98-14.01,6.53-11.83,30.27,9.01,31.17,8.03.36,15.54.5,23.53.5,2.76,0,5.59-.02,8.51-.04,1.16-.02,2.32-.04,3.52-.06,4.18-.06,8.59-.14,13.31-.24,1.36-.04,2.74-.06,4.14-.1,5.63-.16,10.09-2.52,13.09-5.89-2.56-2.04-4.99-4.24-7.29-6.61-15.08-15.52-23.36-36.92-23.36-60.26"/>
          <path class="cls-3" d="M352.4,178.61l.06-.02.04-.02c5.47-2.88,7.31-3.86,7.71-27.63.22-14.18.22-26.85.14-39.46-10.87-27.69-36.58-46.11-68.95-46.11s-57.34,17.62-68.89,44.45c-3.1,7.19-5.17,15.04-6.05,23.38-.32,2.98-.48,6.05-.48,9.17,0,24.71,9.97,45.87,26.45,59.62v.02c2.14,1.8,4.42,3.48,6.79,5.03,11.63,7.55,25.77,11.85,41.46,11.85,19.5,0,36.8-6.67,49.89-18.1-.82-9.07,3.66-17.72,11.83-22.18M293.4,187.4c-14.82,0-27.99-17.1-29.19-46.85-1.16-28.41,9.91-43.81,24.29-43.81s27.99,16.86,29.25,46.29c1.16,28.35-9.85,44.37-24.35,44.37"/>
          <path class="cls-3" d="M415.83,179.65c-2.8-3.72-3.48-9.39-3.68-21.56-.58-38.78-.42-79.14-.24-114.46-3.62-4.5-5.47-9.93-5.15-15.58.26-4.77,2.04-9.23,5.07-13.01v-.02c-.08-.62-.18-1.24-.3-1.84-.12-.64-.28-1.24-.46-1.82-.7-2.38-1.8-4.4-3.2-6.07-.18-.2-.36-.4-.54-.58-.18-.22-.36-.4-.56-.56-.38-.36-.78-.7-1.2-1.02-.42-.32-.86-.62-1.3-.88-.46-.26-.92-.5-1.4-.74h-.02c-.96-.44-1.98-.78-3.04-1.04C398.45.16,397.05,0,395.57,0c-3.3,0-6.91.78-10.61,2.38-9.73,4.3-18.44,8.35-25.93,12.57-11.67,6.53-12.63,19.76-2.12,27.33,9.13,6.47,11.19,10.81,11.19,27.19.02,14.44.18,27.49.26,40.62.08,13.05.1,26.23-.14,40.98-.42,24.77-2.48,29.55-11.97,34.56-7.09,3.88-9.11,11.49-6.99,18.02,1.98,6.01,7.51,11.07,15.88,11.41,8.71.38,17.44.56,25.93.56,7.29,0,14.42-.12,21.14-.4-2.88-3.04-4.99-6.83-5.99-11.13-2.24-9.57,1.6-19.16,9.61-24.45"/>
          <path class="cls-3" d="M488.71,185.22c-9.55-4.83-11.13-7.61-11.43-27.13-.24-16.88-.36-34.06-.38-50.99-.56-.34-1.14-.7-1.78-1.06l-.04-.04-.06-.02c-9.17-5.49-13.51-16.14-10.79-26.51,1.84-6.99,6.47-12.47,12.71-15.56.06-16.02.16-31.33.22-45.39,0-2-.18-3.84-.54-5.53-.12-.56-.26-1.12-.42-1.64-.62-2.08-1.54-3.88-2.68-5.41-.34-.44-.68-.84-1.04-1.24C469.53,1.6,465.4,0,460.68,0c-3.3,0-6.89.78-10.59,2.38-9.73,4.3-18.44,8.35-25.93,12.57-1.56.88-2.94,1.88-4.12,2.96-6.97,6.43-7.13,16.04-.1,22.62.64.62,1.34,1.18,2.1,1.74,9.13,6.47,11.19,10.81,11.19,27.19.06,28.83.6,52.04.12,81.61-.26,15.68-1.18,23.34-4.24,28.13-1.5,2.38-3.54,4.04-6.27,5.63-.46.26-.96.54-1.46.8-11.29,6.19-9.75,21.92,1.12,27.47,2.22,1.14,4.83,1.84,7.77,1.96.9.04,1.78.08,2.68.1,7.81.32,15.64.46,23.24.46,8.11,0,16-.16,23.38-.5,18.14-.78,23.26-22.48,9.13-29.91"/>
          <path class="cls-3" d="M618.49,69.11c-4.91-.2-10.83-.3-17.16-.3-6.77,0-14.01.12-20.98.36-15.1.48-20.3,19.7-10.27,27.99,7.63,5.81,9.25,11.59,5.75,20.3-2.48,6.16-5.51,13.17-8.53,20.18-.12.28-.24.54-.36.8-.24.5-.48.96-.76,1.4v.02c-.42.64-.84,1.22-1.26,1.72v.02c-.3.32-.6.62-.9.9-.32.26-.62.5-.94.7-.94.6-1.94.9-2.92.9-.62,0-1.24-.12-1.84-.36-.3-.1-.6-.24-.88-.44-.6-.34-1.18-.8-1.72-1.4-.28-.28-.54-.6-.8-.96-.52-.7-1-1.52-1.44-2.44-4.89-10.41-7.25-15.96-9.49-20.98-3.98-8.95-3.08-14.32,4.79-20.24,10.21-8.29,6.23-27.75-11.19-28.17-9.37-.24-17.7-.34-25.43-.34-8.27,0-15.88.12-23.4.34-1.34.04-2.6.18-3.78.42-3.24.68-5.95,2.08-8.05,3.92-7.07,6.25-7.49,17.68-.02,24.03.68.58,1.42,1.12,2.24,1.6,2.28,1.3,4.14,2.48,5.77,3.68,4.85,3.58,7.31,7.23,10.97,14.76,11.19,22.84,19.94,42.31,34.82,75.24,4.52,9.99,4.85,16.82,1.46,25.03-1.7,4.12-2.96,7.07-4.85,11.19-.34.8-.7,1.52-1.06,2.2-.34.66-.7,1.28-1.08,1.84-.38.56-.76,1.06-1.14,1.5-.2.22-.4.42-.6.62-.24.24-.5.46-.76.68-.42.34-.86.64-1.3.86-.36.2-.74.36-1.14.5-.94.32-1.92.46-2.98.46-2.04,0-4.38-.54-7.09-1.42-3.12-1-6.05-1.46-8.77-1.46-3.44,0-6.53.74-9.23,2.04-.66.32-1.32.68-1.94,1.08-11.97,7.51-14.76,26.79-4.02,37.64.58.58,1.2,1.14,1.84,1.66s1.34,1.02,2.06,1.5c4.36,2.82,10.15,4.56,17.52,4.56,17.28,0,36.56-9.99,48.11-37.36l7.61-17.96c11.37-26.89,22.84-53.36,34.16-79.4,4.22-9.79,8.45-19.46,12.63-29.07,5.25-12.09,8.33-15.36,17.58-19.76,14.46-6.97,11.31-29.69-9.19-30.59"/>
          <path class="cls-3" d="M832.93,178.71l.06-.04.04-.02c5.09-2.72,7.19-3.86,7.57-19.24.08-3.48.1-6.99.08-10.43-2.9-2.48-6.61-3.76-10.37-3.76-2.34,0-4.73.5-6.95,1.54-.74.34-1.44.74-2.14,1.2-1.04.68-2.02,1.52-2.94,2.48-1.5,1.58-2.8,3.56-3.78,5.95-8.33,21.1-14.44,26.79-35.96,26.79-2.9,0-5.57-.08-7.91-.26-18.08-1.08-22.54-6.71-23.47-22.42-.48-7.91-.42-11.23-.18-17.82.18-6.35,3.32-10.27,8.29-10.27h5.49c8.83,0,12.15,1.68,17.12,11.83,2.08,4.16,4.68,7.17,7.55,9.13.72.5,1.44.92,2.18,1.28,2.2,1.1,4.5,1.62,6.75,1.62,4.18,0,8.19-1.8,11.15-5.15.5-.54.94-1.12,1.36-1.74.14-.2.26-.38.38-.58.26-.4.5-.8.72-1.24.28-.54.54-1.08.78-1.66.24-.58.46-1.18.66-1.8.2-.62.36-1.26.5-1.92.38-1.66.58-3.46.6-5.37.12-17.64.54-22.6.24-41.46-.08-3.04-.64-5.79-1.56-8.17-.36-.9-.76-1.74-1.2-2.54-.46-.8-.94-1.54-1.48-2.24-.36-.46-.74-.9-1.12-1.32-3.14-3.32-7.29-5.13-11.55-5.13s-8.45,1.74-11.91,5.51c-.32.34-.64.7-.94,1.08-1.2,1.5-2.3,3.28-3.22,5.33-4.48,10.03-8.17,12.15-17,12.15h-5.49c-5.03,0-8.23-4.12-8.29-12.03-.06-7.79-.06-10.87,0-22.42.06-9.97,6.65-13.65,15.84-13.71,1.26-.02,2.24-.02,3.06-.02.6,0,1.1-.02,1.56-.02,2.22-.02,3.16-.04,7.29-.02.9,0,1.92.02,3.18.02,1.16.02,2.48.02,4,.04,11.97.12,19.58,1.08,27.45,26.77,1.02,3.32,2.6,5.97,4.56,7.99.32.34.66.66,1,.96.7.6,1.42,1.12,2.16,1.6,1.72,1.06,3.58,1.76,5.49,2.1,1.26-7.77,6.61-14.7,14.62-18.76l1.3-.66c1.3-.66,2.6-1.32,3.9-1.98-.58-9.69-1.68-21.3-3.36-29.99-2.84-14.94-10.45-20.66-30.23-20.9-6.35,0-13.05-.06-20.06-.06s-14.34-.04-21.82-.02c-1.5,0-3.02.02-4.52.02-21.16.06-43.39.18-64.43.54-19.1.3-23.2,19.7-12.57,28.03,13.17,10.17,15.84,13.61,16.08,28.47.48,31.43.42,57.9.06,79.79-.42,19.4-3.32,23.69-13.65,29.73-14.01,8.41-8.77,29.43,9.67,30.11,12.81.48,36.92.66,65.15.72,11.49,0,23.63,0,35.96-.06,6.89,0,13.83-.06,20.8-.06,3.14,0,5.91-.26,8.33-.8-3.06-3.1-5.29-7.01-6.31-11.41-2.34-10.17,2.14-20.08,11.45-25.25"/>
          <path class="cls-3" d="M971.62,202.96c-2.16-5.95-2.6-10.49-2.6-15.5,0-7.85,1.94-15.26,5.67-21.62-.16-2.04-.24-4.32-.3-6.91-.06-3.94-.1-7.45-.12-10.79-4.22-8.45-6.27-17.66-6.27-28.07,0-8.51,1.56-16.64,4.58-24.03-5.75-19.2-22.72-29.49-42.77-29.49-.98,0-1.98.02-2.98.08h-.16c-.98.06-1.96.14-2.96.24-1.04.1-2.06.24-3.1.38-1.04.16-2.1.34-3.14.56-4.2.82-8.45,2.1-12.69,3.78-3.92,1.56-7.07,2.32-9.87,2.32-4.2,0-7.67-1.7-11.89-4.99-.3-.26-.62-.5-.94-.74-.64-.46-1.3-.86-2-1.2-1.74-.86-3.68-1.3-5.83-1.3-2.62,0-5.57.66-8.89,2.1-5.31,2.3-10.05,4.58-14.8,6.93-2.88,1.42-5.75,2.88-8.75,4.4-.32.16-.64.34-.98.5-5.27,2.68-8.63,6.73-9.93,11.09-.8,2.72-.82,5.57,0,8.27.98,3.26,3.16,6.33,6.61,8.81,8.45,6.05,10.69,7.99,10.93,21.22.06,5.17.2,10.83.24,16.74.04,4.5.04,9.15-.06,13.83-.24,9.17-1.14,14.74-3.38,18.68-1.8,3.2-4.46,5.35-8.39,7.43-10.65,5.93-10.09,19.44-1.26,25.87,2.14,1.58,4.81,2.74,7.91,3.22.78.14,1.58.24,2.4.28,8.07.44,16.36.64,24.61.64s16.5-.2,24.49-.64c9.17-.54,15.1-6.59,16.62-13.23,1.5,6.77,7.49,12.87,16.74,13.29.92.04,1.86.1,2.8.14,6.65.28,13.87.42,21.02.42,1.56,0,3.12,0,4.68-.02h.42c1.58-.02,3.16-.04,4.71-.06h.04c1.84-.02,3.68-.08,5.47-.14,1.16-1.62,2.44-3.2,3.86-4.71,1.94-2.2,2.18-2.56.28-7.81M930.7,158.39c-.56,19.46-2.78,22.72-10.77,26.41-4.71,2.3-7.37,6.05-8.33,10.09-.86-3.5-3.02-6.71-6.65-8.83-9.55-5.37-11.79-8.15-12.45-27.13-.24-7.67-.24-18.68,0-32.27.24-11.25,4.22-18.8,10.57-22.54.92-.56,1.84-1.02,2.76-1.44.92-.4,1.84-.72,2.76-1,.8-.24,1.6-.4,2.38-.52.2-.04.4-.08.58-.1.7-.08,1.36-.14,2.04-.14.22,0,.42-.02.62-.02.22-.02.42-.02.62.02.56,0,1.1.06,1.64.16.48.04.94.12,1.38.26.16,0,.3.04.44.1.36.08.72.18,1.06.32.34.08.68.22,1,.36.5.2.98.42,1.44.68.46.24.92.52,1.36.82.34.22.68.48,1,.74.5.4.98.82,1.44,1.32.18.18.38.38.56.6.36.4.7.84,1.02,1.3.5.68.94,1.4,1.32,2.18.26.5.5,1.04.72,1.6.22.56.42,1.14.58,1.74.52,1.78.82,3.74.88,5.89.24,13.65.24,29.37,0,39.4"/>
          <path class="cls-3" d="M1107.07,192.95c-7.05-7.09-18.08-12.17-34.48-12.91l-2.66-.14c-5.63-.24-7.81-7.01-1.46-9.91,2.6-1.2,4.42-2.22,6.23-3.38,2.36-1.38,4.6-2.9,9.37-7.31,3.5-3.26,6.49-6.63,8.95-10.31-.12-2.02-.18-4.06-.18-6.13,0-26.81,10.41-48.23,25.83-62.91-3.18-4-8.25-6.73-15.24-6.73-1.94,0-4.04.22-6.31.68-2.44.48-4.56.7-6.49.7-2.16,0-4.1-.28-5.97-.72-.34-.08-.68-.18-1.02-.26-.3-.08-.62-.18-.92-.28-2.08-.62-4.16-1.42-6.55-2.28-.96-.34-2-.7-3.08-1.06-1.1-.38-2.26-.74-3.5-1.08-.5-.14-1-.28-1.52-.42-2.64-.68-5.65-1.32-9.15-1.84-.66-.1-1.32-.18-2.02-.28-4.89-.62-10.69-1-17.8-1-30.19,0-49.55,13.03-58.06,31.27-3.36,7.15-5.03,15.12-5.03,23.42,0,10.21,2.22,18.68,6.27,26.07.26.48.52.96.8,1.42,4.89,8.35,5.07,12.93.24,19.66-.16.22-.3.42-.44.64-2.3,3.32-3.94,7.05-4.91,11.11-.62,2.7-.94,5.53-.94,8.49,0,4.58.42,8.09,2.12,12.75,2.44,6.79,2.62,10.25-.88,14.76-.32.4-.64.8-1,1.2-2.14,2.26-3.86,4.66-5.25,7.15-3.02,5.47-4.3,11.41-4.3,17.56,0,28.83,28.77,42.39,63.23,42.39,49.67,0,86.91-27.75,86.91-62.69,0-6.65-1.44-13.67-4.99-19.96-2.08-2.42-4.02-4.99-5.81-7.67M1038.55,94.8h.08c6.09,0,10.77,3.98,13.41,10.85.28.68.52,1.4.74,2.12.12.38.22.76.32,1.14.2.78.38,1.56.54,2.38.16.82.3,1.68.42,2.54.28,2.18.44,4.52.44,7.01,0,14.7-5.21,25.09-14.58,25.21h-.16c-3.36,0-6.29-1.24-8.65-3.48-.44-.42-.84-.86-1.24-1.34-1.04-1.26-1.96-2.76-2.74-4.46-.24-.54-.48-1.1-.7-1.7-.16-.46-.34-.92-.48-1.4-.16-.52-.32-1.04-.46-1.58-.24-.88-.44-1.78-.62-2.7-.14-.82-.28-1.68-.4-2.56-.28-2.18-.42-4.52-.42-6.99,0-14.46,4.95-24.91,14.5-25.03M1042.54,247.66c-23.63,0-33.12-4.73-33.12-12.87,0-7.69,7.19-9.93,19.7-9.93h21.04c16.98,0,24.11,3.2,24.11,10.35,0,7.79-9.31,12.45-31.73,12.45"/>
          <path class="cls-3" d="M1220.25,178.61l.04-.02.04-.02c3.96-2.08,6.01-3.18,7.01-12.63-2.52-1.8-5.61-2.84-8.83-2.84-1.02,0-2.04.1-3.08.32-.76.14-1.54.36-2.3.66-1.02.38-2.04.88-3.06,1.5-.5.32-.98.66-1.48,1.04-.72.56-1.44,1.2-2.14,1.92-8.71,9.13-16.92,11.91-26.41,11.91-14.26,0-26.41-7.93-29.19-25.09-1.58-7.31,2.06-11.85,11.35-11.85h52.48c5.63,0,10.17-1.36,13.51-3.86.14-15.08.02-28.73-.1-43.05v-1.12c-10.23-18.68-30.61-30.11-53.74-30.11-16.58,0-32.65,5.81-45.55,16.26-2.26,1.84-4.44,3.82-6.51,5.95-6.85,7.07-12.43,15.68-16.16,25.57-3.38,8.93-5.29,18.88-5.29,29.71,0,2.78.12,5.53.34,8.21v.02c1.2,13.97,5.43,26.43,12.09,36.72,1.86,2.9,3.94,5.63,6.17,8.17,12.75,14.44,31.23,22.92,52.92,22.92,11.39,0,25.59-2.38,38.08-10.27-.64-1.42-1.16-2.94-1.52-4.52-2.38-10.23,2.16-20.48,11.33-25.49M1154.22,105.99c1.5-5.45,9.07-9.19,17.28-9.19,7.57,0,13.73,3.68,14.28,9.55.36,3.8-3.5,6.29-9.25,6.29h-14.82c-5.57,0-8.63-2.48-7.49-6.65"/>
          <path class="cls-3" d="M1270.54,191.24c-.38-4.68-.54-13.31,0-21.2.58-8.31,4.28-14.54,9.37-18.54-.06-3.76-.1-7.53-.12-11.31-5.33-8.19-8.01-17.54-8.01-28.05s2.74-19.94,7.83-27.87c.02-23.4.18-45.83.26-65.75,0-2-.18-3.84-.54-5.52-.12-.56-.26-1.12-.42-1.64-.62-2.08-1.54-3.88-2.68-5.41-.34-.44-.68-.86-1.06-1.24-.18-.18-.36-.38-.56-.56-2.9-2.74-6.79-4.15-11.21-4.15-3.3,0-6.91.78-10.61,2.38-9.73,4.3-18.42,8.35-25.93,12.57-11.65,6.53-12.63,19.76-2.1,27.33,9.13,6.47,11.17,10.81,11.17,27.19.02,8.41.08,16.34.14,24.09.12,16.42.28,32.03.08,49.67-.02,2.56-.06,5.19-.1,7.85-.08,4.46-.2,8.29-.42,11.57-.4,6.05-1.1,10.27-2.28,13.45-1.78,4.71-4.64,7.09-9.27,9.53-7.11,3.88-9.13,11.55-6.95,18.08.84,2.52,2.3,4.89,4.36,6.79,2.78,2.6,6.65,4.36,11.47,4.56,8.71.38,17.46.56,25.93.56s15.92-.16,23.28-.5c-9.35-6.17-10.91-15.12-11.63-23.89"/>
          <path class="cls-3" d="M1358.79,129.14c-6.65-3.44-17.3-8.77-24.73-12.39-6.83-3.45-9.13-7.49-9.13-11.31,0-5.37,4.22-8.69,11.19-8.69,8.99,0,13.29,5.37,16.38,17.34,1,3.88,2.76,6.83,5.03,8.95.3.3.64.58.98.86,2.68,2.12,5.91,3.14,9.15,3.14.5,0,1-.02,1.5-.08.76-.06,1.5-.2,2.24-.38,1.74-.42,3.42-1.12,4.97-2.1.28-.18.54-.36.82-.56.52-.4,1.04-.82,1.54-1.26.24-.22.48-.46.72-.7,2.3-2.38,4.04-5.55,4.83-9.43.12-.58.22-1.2.28-1.82.04-.34.08-.68.1-1.02.36-4.97.24-13.05,0-18.2-.56-12.33-3.94-18.14-15.84-22-7.75-2.46-19.76-4.1-30.71-4.1-23.59,0-41.12,8.23-50.51,21.46-5.11,7.13-7.81,15.74-7.81,25.31s2.66,18.06,7.97,25.41c5.13,7.11,12.75,13.17,22.8,18.18,6.89,3.44,13.83,6.71,22.48,10.99,7.49,3.7,10.69,8.35,10.69,12.51,0,4.84-4.46,8.17-11.43,8.17-12.19,0-18.18-8.47-21.98-21.88-.68-2.42-1.76-4.44-3.12-6.09-.28-.32-.56-.64-.86-.92-.14-.16-.28-.3-.42-.42-.46-.44-.94-.82-1.44-1.18-1.32-.94-2.76-1.64-4.28-2.1-.76-.24-1.54-.42-2.32-.52-.8-.12-1.58-.18-2.38-.18-.5,0-1,.02-1.5.06-1.5.14-2.98.48-4.42,1-.4.16-.78.32-1.16.48-.14.06-.28.14-.42.2v.02c-.4.18-.8.4-1.18.62-.46.28-.88.56-1.3.86-.42.3-.82.64-1.22.98-.38.34-.76.7-1.12,1.1-.18.18-.36.4-.54.6-.52.62-1,1.28-1.44,1.98l-.42.72c-.22.4-.42.8-.6,1.22v.04c-.14.3-.28.62-.42.94-.12.32-.24.66-.34,1-.18.58-.34,1.16-.46,1.78-.08.3-.12.62-.18.92-.1.64-.18,1.3-.22,1.96-.48,7.19-.36,15.46,0,20,.84,10.15,2.84,15.66,11.05,19.52,1.06.5,2.14.98,3.26,1.42,2.72,1.14,5.57,2.14,8.51,3,9.81,2.9,20.56,4.34,30.35,4.34,43.41,0,58.2-26.19,58.2-45.83,0-15.77-9.31-32.69-31.11-43.93"/>
        </g>
      </g>
    </g>
  </g>
</svg>